<svg width="135" height="28" viewBox="0 0 135 28" fill="none" xmlns="http://www.w3.org/2000/svg">
<path opacity="0.8" d="M66 14.0003L65.352 14.7619L65.352 14.7619L66 14.0003ZM134.031 14.0813C134.075 13.5308 133.665 13.0483 133.115 13.0036L124.144 12.2757C123.594 12.231 123.111 12.641 123.067 13.1915C123.022 13.742 123.432 14.2244 123.982 14.2691L131.956 14.9162L131.309 22.89C131.264 23.4405 131.674 23.9229 132.225 23.9676C132.775 24.0123 133.258 23.6022 133.303 23.0518L134.031 14.0813ZM1 14.0004C1.67091 14.7419 1.67086 14.7419 1.67082 14.742C1.67081 14.742 1.67077 14.742 1.67074 14.7421C1.67069 14.7421 1.67065 14.7421 1.67062 14.7422C1.67056 14.7422 1.67053 14.7423 1.67053 14.7423C1.67052 14.7423 1.67065 14.7421 1.67091 14.7419C1.67142 14.7414 1.67244 14.7405 1.67397 14.7392C1.67703 14.7364 1.68213 14.7318 1.68925 14.7255C1.70349 14.7128 1.72581 14.6931 1.75609 14.6666C1.81665 14.6137 1.90902 14.5339 2.03221 14.4301C2.2786 14.2225 2.64813 13.9192 3.13281 13.543L2.51968 12.753L1.90656 11.963C1.39944 12.3566 1.00913 12.6769 0.743633 12.9006C0.610872 13.0124 0.509283 13.1001 0.439868 13.1608C0.405159 13.1911 0.378491 13.2147 0.359987 13.2312C0.350735 13.2394 0.343524 13.2458 0.338369 13.2505C0.335792 13.2528 0.333728 13.2546 0.332181 13.256C0.331407 13.2567 0.330763 13.2573 0.330247 13.2578C0.32999 13.258 0.329764 13.2582 0.329571 13.2584C0.329475 13.2585 0.329386 13.2586 0.329306 13.2586C0.329266 13.2587 0.329212 13.2587 0.329192 13.2587C0.329139 13.2588 0.329089 13.2588 1 14.0004ZM5.73157 10.4571L6.28322 11.2912C7.25529 10.6483 8.36711 9.95625 9.60584 9.25195L9.11158 8.38264L8.61732 7.51332C7.33641 8.2416 6.18632 8.95742 5.17992 9.62303L5.73157 10.4571ZM12.617 6.54183L13.0518 7.44234C14.1691 6.90284 15.355 6.37504 16.6038 5.87579L16.2325 4.94724L15.8613 4.0187C14.5668 4.53625 13.3384 5.08299 12.1821 5.64132L12.617 6.54183ZM19.9535 3.61419L20.2557 4.56744C21.4597 4.18577 22.7082 3.83887 23.9972 3.53831L23.7701 2.56444L23.543 1.59056C22.2008 1.90353 20.9022 2.26442 19.6513 2.66094L19.9535 3.61419ZM27.6559 1.82415L27.8021 2.81341C29.054 2.62842 30.3368 2.4919 31.6474 2.41279L31.5871 1.41461L31.5269 0.416427C30.1565 0.499144 28.8164 0.641824 27.5097 0.834893L27.6559 1.82415ZM35.5433 1.35258L35.514 2.35215C36.7769 2.38922 38.0615 2.48314 39.3652 2.64112L39.4855 1.64838L39.6058 0.655641C38.2402 0.490171 36.895 0.391822 35.5727 0.353009L35.5433 1.35258ZM43.3816 2.30201L43.1715 3.27968C44.4056 3.54491 45.6546 3.87057 46.9164 4.26243L47.2129 3.30742L47.5095 2.35241C46.1904 1.94275 44.8837 1.60199 43.5917 1.32433L43.3816 2.30201ZM50.9343 4.64189L50.5571 5.56801C51.7206 6.04194 52.8936 6.57484 54.0747 7.17107L54.5253 6.27838L54.976 5.38569C53.7473 4.76539 52.5253 4.21016 51.3115 3.71576L50.9343 4.64189ZM57.9816 8.1917L57.4652 9.04803C58.5442 9.6988 59.6289 10.4047 60.7182 11.1691L61.2926 10.3505L61.867 9.53194C60.7407 8.74155 59.6173 8.01039 58.498 7.33538L57.9816 8.1917ZM64.4539 12.7239L63.8289 13.5045C64.3359 13.9104 64.8436 14.3294 65.352 14.7619L66 14.0003L66.648 13.2386C66.1246 12.7934 65.6015 12.3617 65.0789 11.9432L64.4539 12.7239ZM66 14.0003L65.352 14.7619C65.8888 15.2186 66.4258 15.661 66.9629 16.0895L67.5866 15.3078L68.2102 14.5261C67.6898 14.1109 67.169 13.6818 66.648 13.2386L66 14.0003ZM70.8393 17.7328L70.2691 18.5542C71.4283 19.359 72.5865 20.1018 73.7422 20.7859L74.2516 19.9254L74.761 19.0649C73.6474 18.4057 72.5298 17.689 71.4096 16.9113L70.8393 17.7328ZM77.8164 21.8541L77.3755 22.7517C78.6409 23.3732 79.9014 23.9276 81.155 24.4194L81.5202 23.4884L81.8853 22.5575C80.6832 22.086 79.4733 21.5538 78.2572 20.9566L77.8164 21.8541ZM85.3676 24.8088L85.0847 25.768C86.4394 26.1676 87.7832 26.4976 89.1135 26.764L89.3098 25.7835L89.5062 24.8029C88.2335 24.5481 86.9476 24.2323 85.6505 23.8497L85.3676 24.8088ZM93.3138 26.4002L93.2059 27.3944C94.6075 27.5464 95.99 27.6317 97.3505 27.658L97.3698 26.6582L97.3891 25.6584C96.0861 25.6332 94.7627 25.5515 93.4216 25.406L93.3138 26.4002ZM101.425 26.5611L101.492 27.5588C102.895 27.4652 104.27 27.313 105.611 27.1117L105.463 26.1228L105.315 25.1339C104.025 25.3273 102.705 25.4734 101.359 25.5633L101.425 26.5611ZM109.447 25.3643L109.671 26.3388C111.048 26.0214 112.381 25.6578 113.667 25.26L113.372 24.3047L113.077 23.3493C111.835 23.7334 110.548 24.0841 109.222 24.3899L109.447 25.3643ZM117.206 22.971L117.567 23.9038C118.9 23.3884 120.167 22.8454 121.361 22.2917L120.94 21.3845L120.519 20.4772C119.362 21.0138 118.135 21.5397 116.845 22.0383L117.206 22.971ZM124.57 19.5593L125.047 20.4382C126.374 19.718 127.568 19.011 128.614 18.354L128.082 17.5072L127.55 16.6604C126.537 17.2967 125.38 17.982 124.093 18.6805L124.57 19.5593ZM131.437 15.236L132.028 16.0426C132.559 15.6531 132.969 15.3365 133.247 15.1155C133.386 15.005 133.493 14.9184 133.566 14.8586C133.602 14.8287 133.63 14.8055 133.649 14.7893C133.659 14.7813 133.667 14.7749 133.672 14.7704C133.675 14.7682 133.677 14.7664 133.678 14.765C133.679 14.7643 133.68 14.7638 133.68 14.7633C133.681 14.7631 133.681 14.7629 133.681 14.7628C133.681 14.7627 133.681 14.7626 133.681 14.7625C133.681 14.7625 133.681 14.7625 133.681 14.7624C133.681 14.7624 133.681 14.7624 133.034 14.0004C132.386 13.2384 132.386 13.2383 132.386 13.2383C132.386 13.2383 132.386 13.2383 132.386 13.2382C132.386 13.2382 132.386 13.2382 132.387 13.2381C132.387 13.2381 132.387 13.2381 132.387 13.2381C132.387 13.2381 132.386 13.2382 132.386 13.2385C132.386 13.239 132.384 13.2399 132.383 13.2413C132.379 13.2441 132.374 13.2487 132.366 13.255C132.351 13.2677 132.328 13.2873 132.296 13.3137C132.232 13.3663 132.134 13.4456 132.004 13.5487C131.744 13.7548 131.355 14.056 130.846 14.4294L131.437 15.236ZM66 14.0003L65.352 14.7619L65.352 14.7619L66 14.0003ZM134.031 14.0813C134.075 13.5308 133.665 13.0483 133.115 13.0036L124.144 12.2757C123.594 12.231 123.111 12.641 123.067 13.1915C123.022 13.742 123.432 14.2244 123.982 14.2691L131.956 14.9162L131.309 22.89C131.264 23.4405 131.674 23.9229 132.225 23.9676C132.775 24.0123 133.258 23.6022 133.303 23.0518L134.031 14.0813ZM1 14.0004C1.67091 14.7419 1.67086 14.7419 1.67082 14.742C1.67081 14.742 1.67077 14.742 1.67074 14.7421C1.67069 14.7421 1.67065 14.7421 1.67062 14.7422C1.67056 14.7422 1.67053 14.7423 1.67053 14.7423C1.67052 14.7423 1.67065 14.7421 1.67091 14.7419C1.67142 14.7414 1.67244 14.7405 1.67397 14.7392C1.67703 14.7364 1.68213 14.7318 1.68925 14.7255C1.70349 14.7128 1.72581 14.6931 1.75609 14.6666C1.81665 14.6137 1.90902 14.5339 2.03221 14.4301C2.2786 14.2225 2.64813 13.9192 3.13281 13.543L2.51968 12.753L1.90656 11.963C1.39944 12.3566 1.00913 12.6769 0.743633 12.9006C0.610872 13.0124 0.509283 13.1001 0.439868 13.1608C0.405159 13.1911 0.378491 13.2147 0.359987 13.2312C0.350735 13.2394 0.343524 13.2458 0.338369 13.2505C0.335792 13.2528 0.333728 13.2546 0.332181 13.256C0.331407 13.2567 0.330763 13.2573 0.330247 13.2578C0.32999 13.258 0.329764 13.2582 0.329571 13.2584C0.329475 13.2585 0.329386 13.2586 0.329306 13.2586C0.329266 13.2587 0.329212 13.2587 0.329192 13.2587C0.329139 13.2588 0.329089 13.2588 1 14.0004ZM5.73157 10.4571L6.28322 11.2912C7.25529 10.6483 8.36711 9.95625 9.60584 9.25195L9.11158 8.38264L8.61732 7.51332C7.33641 8.2416 6.18632 8.95742 5.17992 9.62303L5.73157 10.4571ZM12.617 6.54183L13.0518 7.44234C14.1691 6.90284 15.355 6.37504 16.6038 5.87579L16.2325 4.94724L15.8613 4.0187C14.5668 4.53625 13.3384 5.08299 12.1821 5.64132L12.617 6.54183ZM19.9535 3.61419L20.2557 4.56744C21.4597 4.18577 22.7082 3.83887 23.9972 3.53831L23.7701 2.56444L23.543 1.59056C22.2008 1.90353 20.9022 2.26442 19.6513 2.66094L19.9535 3.61419ZM27.6559 1.82415L27.8021 2.81341C29.054 2.62842 30.3368 2.4919 31.6474 2.41279L31.5871 1.41461L31.5269 0.416427C30.1565 0.499144 28.8164 0.641824 27.5097 0.834893L27.6559 1.82415ZM35.5433 1.35258L35.514 2.35215C36.7769 2.38922 38.0615 2.48314 39.3652 2.64112L39.4855 1.64838L39.6058 0.655641C38.2402 0.490171 36.895 0.391822 35.5727 0.353009L35.5433 1.35258ZM43.3816 2.30201L43.1715 3.27968C44.4056 3.54491 45.6546 3.87057 46.9164 4.26243L47.2129 3.30742L47.5095 2.35241C46.1904 1.94275 44.8837 1.60199 43.5917 1.32433L43.3816 2.30201ZM50.9343 4.64189L50.5571 5.56801C51.7206 6.04194 52.8936 6.57484 54.0747 7.17107L54.5253 6.27838L54.976 5.38569C53.7473 4.76539 52.5253 4.21016 51.3115 3.71576L50.9343 4.64189ZM57.9816 8.1917L57.4652 9.04803C58.5442 9.6988 59.6289 10.4047 60.7182 11.1691L61.2926 10.3505L61.867 9.53194C60.7407 8.74155 59.6173 8.01039 58.498 7.33538L57.9816 8.1917ZM64.4539 12.7239L63.8289 13.5045C64.3359 13.9104 64.8436 14.3294 65.352 14.7619L66 14.0003L66.648 13.2386C66.1246 12.7934 65.6015 12.3617 65.0789 11.9432L64.4539 12.7239ZM66 14.0003L65.352 14.7619C65.8888 15.2186 66.4258 15.661 66.9629 16.0895L67.5866 15.3078L68.2102 14.5261C67.6898 14.1109 67.169 13.6818 66.648 13.2386L66 14.0003ZM70.8393 17.7328L70.2691 18.5542C71.4283 19.359 72.5865 20.1018 73.7422 20.7859L74.2516 19.9254L74.761 19.0649C73.6474 18.4057 72.5298 17.689 71.4096 16.9113L70.8393 17.7328ZM77.8164 21.8541L77.3755 22.7517C78.6409 23.3732 79.9014 23.9276 81.155 24.4194L81.5202 23.4884L81.8853 22.5575C80.6832 22.086 79.4733 21.5538 78.2572 20.9566L77.8164 21.8541ZM85.3676 24.8088L85.0847 25.768C86.4394 26.1676 87.7832 26.4976 89.1135 26.764L89.3098 25.7835L89.5062 24.8029C88.2335 24.5481 86.9476 24.2323 85.6505 23.8497L85.3676 24.8088ZM93.3138 26.4002L93.2059 27.3944C94.6075 27.5464 95.99 27.6317 97.3505 27.658L97.3698 26.6582L97.3891 25.6584C96.0861 25.6332 94.7627 25.5515 93.4216 25.406L93.3138 26.4002ZM101.425 26.5611L101.492 27.5588C102.895 27.4652 104.27 27.313 105.611 27.1117L105.463 26.1228L105.315 25.1339C104.025 25.3273 102.705 25.4734 101.359 25.5633L101.425 26.5611ZM109.447 25.3643L109.671 26.3388C111.048 26.0214 112.381 25.6578 113.667 25.26L113.372 24.3047L113.077 23.3493C111.835 23.7334 110.548 24.0841 109.222 24.3899L109.447 25.3643ZM117.206 22.971L117.567 23.9038C118.9 23.3884 120.167 22.8454 121.361 22.2917L120.94 21.3845L120.519 20.4772C119.362 21.0138 118.135 21.5397 116.845 22.0383L117.206 22.971ZM124.57 19.5593L125.047 20.4382C126.374 19.718 127.568 19.011 128.614 18.354L128.082 17.5072L127.55 16.6604C126.537 17.2967 125.38 17.982 124.093 18.6805L124.57 19.5593ZM131.437 15.236L132.028 16.0426C132.559 15.6531 132.969 15.3365 133.247 15.1155C133.386 15.005 133.493 14.9184 133.566 14.8586C133.602 14.8287 133.63 14.8055 133.649 14.7893C133.659 14.7813 133.667 14.7749 133.672 14.7704C133.675 14.7682 133.677 14.7664 133.678 14.765C133.679 14.7643 133.68 14.7638 133.68 14.7633C133.681 14.7631 133.681 14.7629 133.681 14.7628C133.681 14.7627 133.681 14.7626 133.681 14.7625C133.681 14.7625 133.681 14.7625 133.681 14.7624C133.681 14.7624 133.681 14.7624 133.034 14.0004C132.386 13.2384 132.386 13.2383 132.386 13.2383C132.386 13.2383 132.386 13.2383 132.386 13.2382C132.386 13.2382 132.386 13.2382 132.387 13.2381C132.387 13.2381 132.387 13.2381 132.387 13.2381C132.387 13.2381 132.386 13.2382 132.386 13.2385C132.386 13.239 132.384 13.2399 132.383 13.2413C132.379 13.2441 132.374 13.2487 132.366 13.255C132.351 13.2677 132.328 13.2873 132.296 13.3137C132.232 13.3663 132.134 13.4456 132.004 13.5487C131.744 13.7548 131.355 14.056 130.846 14.4294L131.437 15.236Z" fill="white"/>
</svg>
