<svg width="1216" height="735" viewBox="0 0 1216 735" fill="none" xmlns="http://www.w3.org/2000/svg">
<g clip-path="url(#clip0_465_60)">
<path d="M1216 689.6V685H0V689.6C0 703.041 0 709.762 2.61584 714.896C4.91681 719.412 8.58832 723.083 13.1042 725.384C18.2381 728 24.9587 728 38.4 728H1177.6C1191.04 728 1197.76 728 1202.9 725.384C1207.41 723.083 1211.08 719.412 1213.38 714.896C1216 709.762 1216 703.041 1216 689.6Z" fill="url(#paint0_linear_465_60)"/>
<path d="M1146 731C1147.6 730.6 1148.67 728.833 1149 728H1069.5C1069.83 728.833 1070.9 730.6 1072.5 731C1072.67 732.167 1073.4 734.5 1075 734.5H1143.5C1145.1 734.5 1145.83 732.167 1146 731Z" fill="url(#paint1_linear_465_60)"/>
<path d="M1145.93 731.403C1145.67 732.632 1144.93 734.5 1143.5 734.5H1075C1073.51 734.5 1072.77 732.47 1072.54 731.25H1145.93V731.403Z" fill="url(#paint2_linear_465_60)"/>
<path d="M1145.93 731.403C1145.85 731.752 1145.74 732.151 1145.59 732.545H1072.91C1072.73 732.092 1072.61 731.631 1072.54 731.25H1145.93V731.403Z" fill="#383838"/>
<path d="M142.5 731C144.1 730.6 145.167 728.833 145.5 728H66C66.3333 728.833 67.4 730.6 69 731C69.1667 732.167 69.9 734.5 71.5 734.5H140C141.6 734.5 142.333 732.167 142.5 731Z" fill="url(#paint3_linear_465_60)"/>
<path d="M142.428 731.403C142.169 732.632 141.432 734.5 140.001 734.5H71.501C70.0086 734.5 69.2708 732.47 69.043 731.25H142.428V731.403Z" fill="url(#paint4_linear_465_60)"/>
<path d="M142.428 731.403C142.354 731.752 142.241 732.151 142.086 732.545H69.4131C69.2347 732.092 69.1142 731.631 69.043 731.25H142.428V731.403Z" fill="#383838"/>
<path d="M502 685H713.5C713.5 694.113 706.113 701.5 697 701.5H518.5C509.387 701.5 502 694.113 502 685Z" fill="url(#paint5_linear_465_60)"/>
<path d="M712.992 685.5C712.728 694.105 705.669 701 697 701H518.5C509.831 701 502.772 694.105 502.508 685.5H712.992Z" stroke="white" stroke-opacity="0.1"/>
<rect x="1121.5" y="685" width="81" height="33" fill="url(#paint6_linear_465_60)"/>
<rect width="84" height="33" transform="matrix(-1 0 0 1 84.5 685)" fill="url(#paint7_linear_465_60)"/>
<g filter="url(#filter0_f_465_60)">
<path d="M1192.5 685H1205.5V705.112C1205.5 709.469 1201.97 713 1197.61 713C1194.79 713 1192.5 710.711 1192.5 707.888V685Z" fill="#D2D2DA"/>
</g>
<g filter="url(#filter1_f_465_60)">
<path d="M20.5 685H9.5V706.326C9.5 710.012 12.4881 713 16.1742 713C18.5633 713 20.5 711.063 20.5 708.674V685Z" fill="#D2D2DA"/>
</g>
</g>
<path d="M608.5 2H1078.5C1093.96 2 1106.5 14.536 1106.5 30V683H608.5H608H110V30C110 14.536 122.536 2 138 2H608H608.5Z" fill="black"/>
<path fill-rule="evenodd" clip-rule="evenodd" d="M1078.5 4H138C123.641 4 112 15.6406 112 30V681H1104.5V30C1104.5 15.6406 1092.86 4 1078.5 4ZM1078.5 2H138C122.536 2 110 14.536 110 30V683H1106.5V30C1106.5 14.536 1093.96 2 1078.5 2Z" fill="#201F24"/>
<path fill-rule="evenodd" clip-rule="evenodd" d="M1108.5 685H108V30C108 13.4315 121.431 0 138 0H1078.5C1095.07 0 1108.5 13.4315 1108.5 30V685ZM1078.5 2H138C122.536 2 110 14.536 110 30V683H1106.5V30C1106.5 14.536 1093.96 2 1078.5 2Z" fill="#7D7D7F"/>
<path d="M112.846 657H1103.5V676C1103.5 678.209 1101.71 680 1099.5 680H116.846C114.637 680 112.846 678.209 112.846 676V657Z" fill="url(#paint8_linear_465_60)"/>
<g clip-path="url(#clip1_465_60)">
<g clip-path="url(#clip2_465_60)">
<rect width="967" height="628" transform="translate(124.5 18)" fill="white"/>
<g clip-path="url(#clip3_465_60)">
<foreignObject x="20.8929" y="-85.6071" width="1174.21" height="230.214"><div xmlns="http://www.w3.org/1999/xhtml" style="backdrop-filter:blur(51.8px);clip-path:url(#bgblur_4_465_60_clip_path);height:100%;width:100%"></div></foreignObject><rect data-figma-bg-blur-radius="103.607" x="124.5" y="18" width="967" height="23" fill="white" fill-opacity="0.5"/>
<g style="mix-blend-mode:color-burn" opacity="0.2">
<rect x="124.5" y="18" width="967" height="23" fill="#8F8F8F"/>
</g>
</g>
<g clip-path="url(#clip5_465_60)">
<g style="mix-blend-mode:hard-light" opacity="0.76" filter="url(#filter3_d_465_60)">
<path d="M141.946 24.9032C142.254 24.5355 142.468 24.0336 142.468 23.5268C142.468 23.4572 142.463 23.3877 142.448 23.333C141.956 23.3529 141.36 23.661 141.002 24.0783C140.724 24.3964 140.465 24.9032 140.465 25.41C140.465 25.4895 140.475 25.5641 140.485 25.5889C140.515 25.5939 140.565 25.6038 140.614 25.6038C141.061 25.6038 141.618 25.3057 141.946 24.9032ZM142.299 25.7082C141.553 25.7082 140.952 26.1603 140.565 26.1603C140.152 26.1603 139.616 25.738 138.97 25.738C137.742 25.738 136.5 26.7516 136.5 28.6597C136.5 29.8523 136.957 31.1094 137.529 31.9193C138.016 32.6051 138.443 33.1665 139.054 33.1665C139.665 33.1665 139.934 32.7641 140.684 32.7641C141.454 32.7641 141.623 33.1566 142.299 33.1566C142.965 33.1566 143.407 32.5454 143.824 31.9442C144.296 31.2535 144.49 30.5827 144.5 30.5479C144.46 30.538 143.183 30.0162 143.183 28.5603C143.183 27.2982 144.187 26.7318 144.242 26.687C143.586 25.738 142.577 25.7082 142.299 25.7082Z" fill="black"/>
</g>
<g style="mix-blend-mode:hard-light" opacity="0.76" filter="url(#filter4_d_465_60)">
<path d="M157.184 31.75H158.363V29.5312H160.656V28.5977H158.363V27.0859H160.875V26.1133H157.184V31.75ZM162.594 26.7891C162.945 26.7891 163.234 26.5078 163.234 26.1562C163.234 25.8008 162.945 25.5195 162.594 25.5195C162.242 25.5195 161.949 25.8008 161.949 26.1562C161.949 26.5078 162.242 26.7891 162.594 26.7891ZM162.019 31.75H163.16V27.4492H162.019V31.75ZM164.468 31.75H165.609V29.2617C165.609 28.6797 165.929 28.3008 166.457 28.3008C166.996 28.3008 167.246 28.6211 167.246 29.2266V31.75H168.386V28.9688C168.386 27.9414 167.871 27.3555 166.914 27.3555C166.3 27.3555 165.875 27.6484 165.679 28.1133H165.609V27.4492H164.468V31.75ZM171.187 31.8164C171.792 31.8164 172.25 31.5469 172.472 31.082H172.542V31.75H173.683V25.8047H172.542V28.1367H172.472C172.257 27.668 171.777 27.3789 171.187 27.3789C170.097 27.3789 169.441 28.2109 169.441 29.5938V29.6016C169.441 30.9766 170.113 31.8164 171.187 31.8164ZM171.574 30.8711C170.972 30.8711 170.601 30.3945 170.601 29.6016V29.5938C170.601 28.8086 170.972 28.3242 171.574 28.3242C172.175 28.3242 172.554 28.8086 172.554 29.5977V29.6055C172.554 30.3945 172.179 30.8711 171.574 30.8711ZM176.913 31.8398C178.171 31.8398 178.726 31.1133 178.859 30.5742L178.867 30.5352H177.804L177.792 30.5586C177.714 30.7227 177.437 30.9883 176.937 30.9883C176.331 30.9883 175.952 30.5781 175.941 29.8711H178.902V29.5156C178.902 28.2148 178.12 27.3555 176.867 27.3555C175.613 27.3555 174.812 28.2344 174.812 29.6016V29.6055C174.812 30.9844 175.605 31.8398 176.913 31.8398ZM176.886 28.2109C177.382 28.2109 177.738 28.5312 177.808 29.1562H175.952C176.023 28.5469 176.39 28.2109 176.886 28.2109ZM179.995 31.75H181.136V29.3438C181.136 28.7344 181.546 28.3633 182.195 28.3633C182.37 28.3633 182.546 28.3906 182.718 28.4297V27.4336C182.605 27.4023 182.445 27.3789 182.292 27.3789C181.734 27.3789 181.343 27.6523 181.206 28.1172H181.136V27.4492H179.995V31.75Z" fill="black"/>
</g>
<g style="mix-blend-mode:hard-light" opacity="0.76" filter="url(#filter5_d_465_60)">
<path d="M196.207 31.75H197.082V29.3906H199.504V28.6523H197.082V26.8672H199.727V26.1133H196.207V31.75ZM201.207 26.75C201.496 26.75 201.738 26.5117 201.738 26.2227C201.738 25.9297 201.496 25.6914 201.207 25.6914C200.914 25.6914 200.676 25.9297 200.676 26.2227C200.676 26.5117 200.914 26.75 201.207 26.75ZM200.781 31.75H201.625V27.5078H200.781V31.75ZM202.898 31.75H203.746V25.8438H202.898V31.75ZM206.789 31.832C207.875 31.832 208.461 31.207 208.602 30.6484L208.609 30.6133L207.793 30.6172L207.777 30.6484C207.676 30.8672 207.352 31.1367 206.809 31.1367C206.109 31.1367 205.664 30.6641 205.648 29.8516H208.656V29.5547C208.656 28.2812 207.93 27.4258 206.746 27.4258C205.562 27.4258 204.797 28.3125 204.797 29.6367V29.6406C204.797 30.9844 205.547 31.832 206.789 31.832ZM206.75 28.1211C207.324 28.1211 207.75 28.4883 207.816 29.2461H205.66C205.734 28.5156 206.172 28.1211 206.75 28.1211Z" fill="black"/>
</g>
<g style="mix-blend-mode:hard-light" opacity="0.76" filter="url(#filter6_d_465_60)">
<path d="M222.207 31.75H225.785V30.9961H223.082V29.2422H225.641V28.5156H223.082V26.8672H225.785V26.1133H222.207V31.75ZM228.5 31.8203C229.094 31.8203 229.559 31.5469 229.805 31.082H229.871V31.75H230.715V25.8438H229.871V28.1797H229.805C229.578 27.7227 229.082 27.4336 228.5 27.4336C227.422 27.4336 226.742 28.2812 226.742 29.625V29.6328C226.742 30.9648 227.434 31.8203 228.5 31.8203ZM228.742 31.0977C228.031 31.0977 227.605 30.543 227.605 29.6328V29.625C227.605 28.7148 228.031 28.1602 228.742 28.1602C229.445 28.1602 229.883 28.7188 229.883 29.625V29.6328C229.883 30.5391 229.449 31.0977 228.742 31.0977ZM232.418 26.75C232.707 26.75 232.949 26.5117 232.949 26.2227C232.949 25.9297 232.707 25.6914 232.418 25.6914C232.125 25.6914 231.887 25.9297 231.887 26.2227C231.887 26.5117 232.125 26.75 232.418 26.75ZM231.992 31.75H232.836V27.5078H231.992V31.75ZM235.672 31.7773C235.836 31.7773 235.992 31.7578 236.129 31.7344V31.0586C236.012 31.0703 235.938 31.0742 235.809 31.0742C235.391 31.0742 235.219 30.8867 235.219 30.4297V28.1758H236.129V27.5078H235.219V26.4375H234.355V27.5078H233.691V28.1758H234.355V30.6328C234.355 31.4492 234.738 31.7773 235.672 31.7773Z" fill="black"/>
</g>
<g style="mix-blend-mode:hard-light" opacity="0.76" filter="url(#filter7_d_465_60)">
<path d="M251.781 31.75H252.746L254.754 26.1133H253.805L252.297 30.6953H252.23L250.723 26.1133H249.773L251.781 31.75ZM256.082 26.75C256.371 26.75 256.613 26.5117 256.613 26.2227C256.613 25.9297 256.371 25.6914 256.082 25.6914C255.789 25.6914 255.551 25.9297 255.551 26.2227C255.551 26.5117 255.789 26.75 256.082 26.75ZM255.656 31.75H256.5V27.5078H255.656V31.75ZM259.516 31.832C260.602 31.832 261.188 31.207 261.328 30.6484L261.336 30.6133L260.52 30.6172L260.504 30.6484C260.402 30.8672 260.078 31.1367 259.535 31.1367C258.836 31.1367 258.391 30.6641 258.375 29.8516H261.383V29.5547C261.383 28.2812 260.656 27.4258 259.473 27.4258C258.289 27.4258 257.523 28.3125 257.523 29.6367V29.6406C257.523 30.9844 258.273 31.832 259.516 31.832ZM259.477 28.1211C260.051 28.1211 260.477 28.4883 260.543 29.2461H258.387C258.461 28.5156 258.898 28.1211 259.477 28.1211ZM263.176 31.75H264.039L264.914 28.5859H264.98L265.859 31.75H266.73L267.898 27.5078H267.059L266.301 30.7812H266.234L265.359 27.5078H264.555L263.68 30.7812H263.617L262.855 27.5078H262.004L263.176 31.75Z" fill="black"/>
</g>
<g style="mix-blend-mode:hard-light" opacity="0.76" filter="url(#filter8_d_465_60)">
<path d="M283.582 31.8867C285.059 31.8867 286.016 30.9609 286.016 29.5312V28.832H283.703V29.5391H285.152V29.6641C285.145 30.5312 284.516 31.1133 283.594 31.1133C282.535 31.1133 281.871 30.2773 281.871 28.9297V28.9219C281.871 27.5938 282.531 26.75 283.574 26.75C284.348 26.75 284.887 27.125 285.09 27.793L285.102 27.832H285.977L285.969 27.793C285.766 26.7031 284.855 25.9766 283.574 25.9766C281.996 25.9766 280.977 27.1367 280.977 28.9258V28.9336C280.977 30.7461 281.984 31.8867 283.582 31.8867ZM288.922 31.832C290.164 31.832 290.926 31 290.926 29.6328V29.625C290.926 28.2578 290.16 27.4258 288.922 27.4258C287.68 27.4258 286.914 28.2617 286.914 29.625V29.6328C286.914 31 287.676 31.832 288.922 31.832ZM288.922 31.125C288.191 31.125 287.781 30.5742 287.781 29.6328V29.625C287.781 28.6836 288.191 28.1328 288.922 28.1328C289.648 28.1328 290.062 28.6836 290.062 29.625V29.6328C290.062 30.5703 289.648 31.125 288.922 31.125Z" fill="black"/>
</g>
<g style="mix-blend-mode:hard-light" opacity="0.76" filter="url(#filter9_d_465_60)">
<path d="M305.367 31.75H306.195L307.402 27.5352H307.457L308.668 31.75H309.492L311.016 26.1133H310.105L309.074 30.4961H309.02L307.836 26.1133H307.023L305.848 30.4961H305.793L304.758 26.1133H303.848L305.367 31.75ZM312.418 26.75C312.707 26.75 312.949 26.5117 312.949 26.2227C312.949 25.9297 312.707 25.6914 312.418 25.6914C312.125 25.6914 311.887 25.9297 311.887 26.2227C311.887 26.5117 312.125 26.75 312.418 26.75ZM311.992 31.75H312.836V27.5078H311.992V31.75ZM314.07 31.75H314.918V29.2617C314.918 28.5781 315.305 28.1523 315.926 28.1523C316.547 28.1523 316.84 28.5 316.84 29.2031V31.75H317.684V29.0039C317.684 27.9922 317.16 27.4258 316.211 27.4258C315.594 27.4258 315.188 27.6992 314.98 28.1523H314.918V27.5078H314.07V31.75ZM320.414 31.8203C321.008 31.8203 321.473 31.5469 321.719 31.082H321.785V31.75H322.629V25.8438H321.785V28.1797H321.719C321.492 27.7227 320.996 27.4336 320.414 27.4336C319.336 27.4336 318.656 28.2812 318.656 29.625V29.6328C318.656 30.9648 319.348 31.8203 320.414 31.8203ZM320.656 31.0977C319.945 31.0977 319.52 30.543 319.52 29.6328V29.625C319.52 28.7148 319.945 28.1602 320.656 28.1602C321.359 28.1602 321.797 28.7188 321.797 29.625V29.6328C321.797 30.5391 321.363 31.0977 320.656 31.0977ZM325.688 31.832C326.93 31.832 327.691 31 327.691 29.6328V29.625C327.691 28.2578 326.926 27.4258 325.688 27.4258C324.445 27.4258 323.68 28.2617 323.68 29.625V29.6328C323.68 31 324.441 31.832 325.688 31.832ZM325.688 31.125C324.957 31.125 324.547 30.5742 324.547 29.6328V29.625C324.547 28.6836 324.957 28.1328 325.688 28.1328C326.414 28.1328 326.828 28.6836 326.828 29.625V29.6328C326.828 30.5703 326.414 31.125 325.688 31.125ZM329.355 31.75H330.219L331.094 28.5859H331.16L332.039 31.75H332.91L334.078 27.5078H333.238L332.48 30.7812H332.414L331.539 27.5078H330.734L329.859 30.7812H329.797L329.035 27.5078H328.184L329.355 31.75Z" fill="black"/>
</g>
<g style="mix-blend-mode:hard-light" opacity="0.76" filter="url(#filter10_d_465_60)">
<path d="M347.207 31.75H348.082V29.2539H350.977V31.75H351.848V26.1133H350.977V28.4961H348.082V26.1133H347.207V31.75ZM354.945 31.832C356.031 31.832 356.617 31.207 356.758 30.6484L356.766 30.6133L355.949 30.6172L355.934 30.6484C355.832 30.8672 355.508 31.1367 354.965 31.1367C354.266 31.1367 353.82 30.6641 353.805 29.8516H356.812V29.5547C356.812 28.2812 356.086 27.4258 354.902 27.4258C353.719 27.4258 352.953 28.3125 352.953 29.6367V29.6406C352.953 30.9844 353.703 31.832 354.945 31.832ZM354.906 28.1211C355.48 28.1211 355.906 28.4883 355.973 29.2461H353.816C353.891 28.5156 354.328 28.1211 354.906 28.1211ZM357.859 31.75H358.707V25.8438H357.859V31.75ZM359.969 33.1641H360.816V31.0781H360.879C361.105 31.5352 361.602 31.8203 362.184 31.8203C363.262 31.8203 363.941 30.9766 363.941 29.6328V29.625C363.941 28.2891 363.254 27.4336 362.184 27.4336C361.59 27.4336 361.125 27.7109 360.879 28.1758H360.816V27.5078H359.969V33.1641ZM361.945 31.0977C361.238 31.0977 360.801 30.5391 360.801 29.6328V29.625C360.801 28.7188 361.238 28.1602 361.945 28.1602C362.652 28.1602 363.078 28.7109 363.078 29.625V29.6328C363.078 30.543 362.652 31.0977 361.945 31.0977Z" fill="black"/>
</g>
</g>
<g clip-path="url(#clip6_465_60)">
<g style="mix-blend-mode:hard-light" opacity="0.76" filter="url(#filter11_d_465_60)">
<path d="M922.548 32.3633H930.889C931.861 32.3633 932.554 32.2559 933.054 31.7563C933.548 31.2622 933.65 30.5801 933.65 29.6025V28.1577C933.65 27.1802 933.548 26.4927 933.054 25.9985C932.554 25.499 931.861 25.3916 930.889 25.3916H922.516C921.581 25.3916 920.888 25.5044 920.389 25.9985C919.895 26.498 919.787 27.1855 919.787 28.1201V29.6025C919.787 30.5801 919.889 31.2622 920.383 31.7563C920.888 32.2559 921.576 32.3633 922.548 32.3633ZM922.403 31.6973C921.774 31.6973 921.205 31.6006 920.872 31.2676C920.544 30.9399 920.453 30.3813 920.453 29.7476V28.0449C920.453 27.3843 920.544 26.8149 920.872 26.4819C921.2 26.1489 921.78 26.0576 922.44 26.0576H931.034C931.668 26.0576 932.237 26.1597 932.565 26.4873C932.893 26.8149 932.989 27.3735 932.989 28.0127V29.7476C932.989 30.3813 932.893 30.9399 932.565 31.2676C932.237 31.6006 931.668 31.6973 931.034 31.6973H922.403ZM922.22 31.144H931.228C931.711 31.144 931.996 31.0742 932.178 30.8916C932.361 30.7036 932.436 30.4136 932.436 29.9355V27.8193C932.436 27.3359 932.361 27.0513 932.178 26.8687C931.996 26.686 931.706 26.6108 931.228 26.6108H922.252C921.737 26.6108 921.441 26.686 921.264 26.8633C921.087 27.0459 921.006 27.3413 921.006 27.8516V29.9355C921.006 30.4243 921.087 30.7036 921.264 30.8916C921.447 31.0688 921.742 31.144 922.22 31.144ZM934.278 30.188C934.676 30.1611 935.213 29.6509 935.213 28.8774C935.213 28.1094 934.676 27.5938 934.278 27.5723V30.188Z" fill="black"/>
</g>
<g style="mix-blend-mode:hard-light" opacity="0.76" filter="url(#filter12_d_465_60)">
<path d="M944.324 28.4414C944.406 28.5234 944.535 28.5234 944.617 28.4336C945.582 27.4102 946.852 26.8711 948.27 26.8711C949.699 26.8711 950.973 27.4141 951.93 28.4375C952.012 28.5195 952.133 28.5156 952.219 28.4297L952.766 27.8828C952.844 27.8047 952.84 27.707 952.777 27.6289C951.84 26.4727 950.09 25.6406 948.27 25.6406C946.453 25.6406 944.699 26.4727 943.762 27.6289C943.699 27.707 943.703 27.8047 943.777 27.8828L944.324 28.4414ZM945.957 30.0664C946.051 30.1563 946.168 30.1445 946.258 30.0508C946.734 29.5273 947.496 29.1602 948.27 29.1641C949.051 29.1602 949.812 29.5391 950.301 30.0625C950.379 30.1523 950.492 30.1484 950.586 30.0625L951.199 29.4609C951.273 29.3906 951.277 29.293 951.215 29.2148C950.605 28.4805 949.492 27.9453 948.27 27.9453C947.047 27.9453 945.934 28.4805 945.328 29.2148C945.262 29.293 945.266 29.3867 945.344 29.4609L945.957 30.0664ZM948.27 32.2266C948.367 32.2266 948.449 32.1836 948.605 32.0312L949.562 31.1094C949.633 31.043 949.648 30.9375 949.586 30.8594C949.312 30.5117 948.82 30.2344 948.27 30.2344C947.707 30.2344 947.207 30.5273 946.937 30.8906C946.891 30.9609 946.914 31.043 946.98 31.1094L947.937 32.0312C948.094 32.1797 948.176 32.2266 948.27 32.2266Z" fill="black"/>
</g>
<g style="mix-blend-mode:hard-light" opacity="0.76" filter="url(#filter13_d_465_60)">
<path d="M965.398 28.2188C965.398 29.9727 966.824 31.3984 968.578 31.3984C969.23 31.3984 969.828 31.1992 970.328 30.8594L972.125 32.6562C972.234 32.7695 972.387 32.8203 972.539 32.8203C972.871 32.8203 973.109 32.5703 973.109 32.2461C973.109 32.0898 973.055 31.9453 972.949 31.8359L971.164 30.0469C971.535 29.5352 971.758 28.9023 971.758 28.2188C971.758 26.4648 970.332 25.0391 968.578 25.0391C966.824 25.0391 965.398 26.4648 965.398 28.2188ZM966.227 28.2188C966.227 26.9219 967.277 25.8672 968.578 25.8672C969.875 25.8672 970.93 26.9219 970.93 28.2188C970.93 29.5156 969.875 30.5703 968.578 30.5703C967.277 30.5703 966.227 29.5156 966.227 28.2188Z" fill="black"/>
</g>
<g style="mix-blend-mode:hard-light" opacity="0.76" filter="url(#filter14_d_465_60)">
<path d="M987.883 28.8008H992.227C993.281 28.8008 994.113 28.0625 994.113 26.9648C994.113 25.8672 993.281 25.1289 992.227 25.1289H987.883C986.828 25.1289 985.996 25.8672 985.996 26.9648C985.996 28.0625 986.828 28.8008 987.883 28.8008ZM987.883 28.0977C987.246 28.0977 986.699 27.6367 986.699 26.9648C986.699 26.293 987.246 25.832 987.883 25.832H992.227C992.863 25.832 993.414 26.293 993.414 26.9648C993.414 27.6367 992.863 28.0977 992.227 28.0977H987.883ZM987.883 27.8398C988.371 27.8438 988.762 27.4453 988.762 26.957C988.766 26.4727 988.371 26.0859 987.883 26.0859C987.395 26.0859 987.008 26.4766 987.008 26.9609C987.008 27.4492 987.395 27.8359 987.883 27.8398ZM987.723 32.7227H992.387C993.348 32.7227 994.113 32.0469 994.113 31.0625C994.113 30.0781 993.348 29.3984 992.387 29.3984H987.723C986.762 29.3984 985.996 30.0781 985.996 31.0625C985.996 32.0469 986.762 32.7227 987.723 32.7227ZM992.488 32.0273C991.949 32.0234 991.523 31.5938 991.523 31.0586C991.523 30.5234 991.949 30.0938 992.488 30.0938C993.023 30.0938 993.461 30.5234 993.457 31.0508C993.453 31.5938 993.02 32.0312 992.488 32.0273Z" fill="black"/>
</g>
<g style="mix-blend-mode:hard-light" opacity="0.76" filter="url(#filter15_d_465_60)">
<path d="M1006.11 31.8867C1004.84 31.8867 1004.02 31.2422 1003.95 30.293L1003.94 30.2422H1004.8L1004.8 30.2852C1004.85 30.7969 1005.39 31.125 1006.15 31.125C1006.87 31.125 1007.38 30.7656 1007.38 30.2422V30.2383C1007.38 29.8047 1007.07 29.5234 1006.33 29.3633L1005.71 29.2305C1004.57 28.9883 1004.07 28.457 1004.07 27.625V27.6211C1004.08 26.6484 1004.92 25.9766 1006.12 25.9766C1007.31 25.9766 1008.09 26.6523 1008.16 27.5273L1008.16 27.582H1007.31L1007.3 27.5313C1007.23 27.0703 1006.79 26.7344 1006.11 26.7383C1005.45 26.7383 1004.96 27.0469 1004.96 27.5781V27.582C1004.96 28 1005.25 28.2734 1005.98 28.4297L1006.6 28.5664C1007.78 28.8203 1008.27 29.2969 1008.27 30.1328V30.1367C1008.27 31.2148 1007.43 31.8867 1006.11 31.8867ZM1010.46 31.8203C1009.65 31.8203 1009.05 31.3281 1009.05 30.5586V30.5508C1009.05 29.793 1009.62 29.3516 1010.64 29.2891L1011.79 29.2227V28.8477C1011.79 28.3828 1011.49 28.125 1010.92 28.125C1010.45 28.125 1010.14 28.2969 1010.04 28.5977L1010.04 28.6133H1009.22L1009.22 28.5859C1009.32 27.8906 1009.99 27.4258 1010.96 27.4258C1012.02 27.4258 1012.62 27.957 1012.62 28.8477V31.75H1011.79V31.1484H1011.72C1011.47 31.5781 1011.02 31.8203 1010.46 31.8203ZM1009.9 30.5234C1009.9 30.9141 1010.23 31.1445 1010.69 31.1445C1011.32 31.1445 1011.79 30.7305 1011.79 30.1836V29.8203L1010.75 29.8867C1010.16 29.9219 1009.9 30.1328 1009.9 30.5156V30.5234ZM1015.42 31.7773C1014.49 31.7773 1014.11 31.4492 1014.11 30.6328V28.1758H1013.44V27.5078H1014.11V26.4375H1014.97V27.5078H1015.88V28.1758H1014.97V30.4297C1014.97 30.8867 1015.14 31.0742 1015.56 31.0742C1015.69 31.0742 1015.76 31.0703 1015.88 31.0586V31.7344C1015.74 31.7578 1015.59 31.7773 1015.42 31.7773ZM1020.47 31.8867C1019.43 31.8867 1018.82 31.25 1018.77 30.3516L1018.77 30.3047H1019.63L1019.63 30.3398C1019.67 30.7695 1019.94 31.1055 1020.46 31.1055C1021.04 31.1055 1021.35 30.7578 1021.35 30.1172V26.1133H1022.23V30.125C1022.23 31.2344 1021.57 31.8867 1020.47 31.8867ZM1024.95 31.832C1024 31.832 1023.5 31.2578 1023.5 30.2539V27.5078H1024.35V30.0547C1024.35 30.7578 1024.61 31.1055 1025.23 31.1055C1025.91 31.1055 1026.27 30.6797 1026.27 29.9961V27.5078H1027.11V31.75H1026.27V31.1094H1026.2C1026 31.5664 1025.57 31.832 1024.95 31.832ZM1028.34 31.75V27.5078H1029.18V28.1523H1029.25C1029.45 27.6992 1029.86 27.4258 1030.48 27.4258C1031.43 27.4258 1031.95 27.9922 1031.95 29.0039V31.75H1031.11V29.2031C1031.11 28.5 1030.81 28.1523 1030.19 28.1523C1029.57 28.1523 1029.18 28.5781 1029.18 29.2617V31.75H1028.34ZM1036.7 31.75V27.0156H1036.63L1035.21 28.0273V27.168L1036.7 26.1133H1037.57V31.75H1036.7ZM1041.16 31.8867C1039.86 31.8867 1039.08 30.75 1039.08 28.9336V28.9258C1039.08 27.1094 1039.86 25.9766 1041.16 25.9766C1042.46 25.9766 1043.24 27.1094 1043.24 28.9258V28.9336C1043.24 30.75 1042.46 31.8867 1041.16 31.8867ZM1041.16 31.1602C1041.91 31.1602 1042.36 30.3125 1042.36 28.9336V28.9258C1042.36 27.5469 1041.91 26.707 1041.16 26.707C1040.4 26.707 1039.96 27.5469 1039.96 28.9258V28.9336C1039.96 30.3125 1040.4 31.1602 1041.16 31.1602Z" fill="black"/>
</g>
<g style="mix-blend-mode:hard-light" opacity="0.76" filter="url(#filter16_d_465_60)">
<path d="M1051.04 25.9766C1049.86 25.9766 1049 26.8047 1049 27.9375V27.9453C1049 29.0234 1049.77 29.8203 1050.84 29.8203C1051.61 29.8203 1052.12 29.418 1052.32 28.9648H1052.4C1052.4 29.0078 1052.4 29.0508 1052.4 29.0938C1052.36 30.2188 1051.96 31.1445 1051.01 31.1445C1050.48 31.1445 1050.11 30.8711 1049.95 30.4414L1049.94 30.4023H1049.07L1049.08 30.4492C1049.27 31.3008 1050.01 31.8867 1051.01 31.8867C1052.4 31.8867 1053.23 30.7617 1053.23 28.8516V28.8438C1053.23 26.7734 1052.17 25.9766 1051.04 25.9766ZM1051.04 29.1133C1050.36 29.1133 1049.86 28.6133 1049.86 27.9219V27.9141C1049.86 27.2383 1050.39 26.7109 1051.05 26.7109C1051.71 26.7109 1052.23 27.25 1052.23 27.9375V27.9414C1052.23 28.6211 1051.71 29.1133 1051.04 29.1133ZM1054.97 28.0234C1055.3 28.0234 1055.54 27.7695 1055.54 27.4531C1055.54 27.1328 1055.3 26.8828 1054.97 26.8828C1054.65 26.8828 1054.4 27.1328 1054.4 27.4531C1054.4 27.7695 1054.65 28.0234 1054.97 28.0234ZM1054.97 30.9766C1055.3 30.9766 1055.54 30.7227 1055.54 30.4063C1055.54 30.0859 1055.3 29.8359 1054.97 29.8359C1054.65 29.8359 1054.4 30.0859 1054.4 30.4063C1054.4 30.7227 1054.65 30.9766 1054.97 30.9766ZM1059.43 31.75H1060.27V30.6289H1061.05V29.8867H1060.27V26.1133H1059.03C1058.25 27.2813 1057.42 28.6133 1056.68 29.8867V30.6289H1059.43V31.75ZM1057.52 29.9023V29.8477C1058.1 28.8594 1058.79 27.7617 1059.39 26.8516H1059.44V29.9023H1057.52ZM1063.41 31.75H1064.29V26.1133H1063.41L1061.93 27.168V28.0273L1063.34 27.0156H1063.41V31.75ZM1067.73 31.75H1068.65L1069.16 30.2266H1071.32L1071.83 31.75H1072.75L1070.71 26.1133H1069.77L1067.73 31.75ZM1070.21 27.1016H1070.27L1071.09 29.5234H1069.4L1070.21 27.1016ZM1073.73 31.75H1074.53V27.6133H1074.59L1076.24 31.75H1076.89L1078.55 27.6133H1078.61V31.75H1079.4V26.1133H1078.39L1076.6 30.6094H1076.54L1074.74 26.1133H1073.73V31.75Z" fill="black"/>
</g>
</g>
<g clip-path="url(#clip7_465_60)">
<path d="M684.361 389.469C684.361 386.713 686.593 384.479 689.347 384.479H863.014C865.767 384.479 867.999 386.713 867.999 389.469V535.01C867.999 537.766 865.767 540 863.014 540H689.347C686.593 540 684.361 537.766 684.361 535.01V389.469Z" fill="#1F2A37"/>
<path d="M684.361 389.469C684.361 386.713 686.593 384.479 689.347 384.479H863.014C865.767 384.479 867.999 386.713 867.999 389.469V535.01C867.999 537.766 865.767 540 863.014 540H689.347C686.593 540 684.361 537.766 684.361 535.01V389.469Z" fill="#E7E7E7"/>
<path d="M703.475 129.99C703.475 127.234 705.707 125 708.46 125H853.875C856.629 125 858.861 127.234 858.861 129.99V260.561C858.861 263.317 856.629 265.551 853.875 265.551H708.46C705.707 265.551 703.475 263.317 703.475 260.561V129.99Z" fill="#1F2A37"/>
<path d="M703.475 129.99C703.475 127.234 705.707 125 708.46 125H853.875C856.629 125 858.861 127.234 858.861 129.99V260.561C858.861 263.317 856.629 265.551 853.875 265.551H708.46C705.707 265.551 703.475 263.317 703.475 260.561V129.99Z" fill="#E7E7E7"/>
<path d="M347 278.026C347 275.27 349.232 273.036 351.986 273.036H518.174C520.928 273.036 523.159 275.27 523.159 278.026V425.231C523.159 427.987 520.928 430.221 518.174 430.221H351.986C349.232 430.221 347 427.987 347 425.231V278.026Z" fill="#1F2A37"/>
<path d="M347 278.026C347 275.27 349.232 273.036 351.986 273.036H518.174C520.928 273.036 523.159 275.27 523.159 278.026V425.231C523.159 427.987 520.928 430.221 518.174 430.221H351.986C349.232 430.221 347 427.987 347 425.231V278.026Z" fill="#E7E7E7"/>
<path d="M494.908 190.701C494.908 187.946 497.14 185.711 499.894 185.711H732.557C735.311 185.711 737.543 187.946 737.543 190.701V357.034C737.543 359.79 735.311 362.024 732.557 362.024H499.894C497.14 362.024 494.908 359.79 494.908 357.034V190.701Z" fill="#E7E7E7"/>
<path d="M494.908 190.701C494.908 187.946 497.14 185.711 499.894 185.711H732.557C735.311 185.711 737.543 187.946 737.543 190.701V357.034C737.543 359.79 735.311 362.024 732.557 362.024H499.894C497.14 362.024 494.908 359.79 494.908 357.034V190.701Z" fill="#E7E7E7"/>
<path fill-rule="evenodd" clip-rule="evenodd" d="M732.557 187.375H499.894C498.058 187.375 496.57 188.864 496.57 190.701V357.034C496.57 358.871 498.058 360.361 499.894 360.361H732.557C734.393 360.361 735.881 358.871 735.881 357.034V190.701C735.881 188.864 734.393 187.375 732.557 187.375ZM499.894 185.711C497.14 185.711 494.908 187.946 494.908 190.701V357.034C494.908 359.79 497.14 362.024 499.894 362.024H732.557C735.311 362.024 737.543 359.79 737.543 357.034V190.701C737.543 187.946 735.311 185.711 732.557 185.711H499.894Z" fill="#D6D6D6"/>
<path d="M571.354 287.175C571.354 284.418 573.585 282.185 576.339 282.185H655.279C658.032 282.185 660.264 284.418 660.264 287.175V340.401C660.264 343.157 658.032 345.391 655.279 345.391H576.339C573.585 345.391 571.354 343.157 571.354 340.401V287.175Z" fill="white"/>
<path fill-rule="evenodd" clip-rule="evenodd" d="M621.038 302.71C621.351 301.846 620.903 300.892 620.041 300.58C619.178 300.267 618.225 300.714 617.913 301.578L609.64 324.449C609.328 325.312 609.774 326.266 610.637 326.578C611.5 326.891 612.453 326.445 612.765 325.58L621.038 302.71ZM607.023 303.901C607.697 304.524 607.74 305.576 607.117 306.252L600.206 313.745L607.117 321.239C607.74 321.914 607.697 322.966 607.023 323.589C606.349 324.212 605.298 324.17 604.674 323.495L597.243 315.437C596.362 314.482 596.362 313.008 597.243 312.053L604.674 303.995C605.298 303.32 606.349 303.278 607.023 303.901ZM624.317 303.901C623.642 304.524 623.601 305.576 624.223 306.252L631.134 313.745L624.223 321.239C623.601 321.914 623.642 322.966 624.317 323.589C624.992 324.212 626.043 324.17 626.665 323.495L634.097 315.437C634.978 314.482 634.978 313.008 634.097 312.053L626.665 303.995C626.043 303.32 624.992 303.278 624.317 303.901Z" fill="#6B7280"/>
<path d="M587.973 213.156C587.973 210.4 590.205 208.167 592.958 208.167H671.898C674.651 208.167 676.883 210.4 676.883 213.156V266.383C676.883 269.139 674.651 271.373 671.898 271.373H592.958C590.205 271.373 587.973 269.139 587.973 266.383V213.156Z" fill="white"/>
<path fill-rule="evenodd" clip-rule="evenodd" d="M634.284 224.8C633.489 224.34 632.473 224.613 632.014 225.408L630.767 227.569C630.383 228.235 630.512 229.057 631.031 229.576L623.754 237.637C623.138 238.319 622.881 239.251 623.059 240.153L625.274 251.364C625.526 252.638 626.871 253.372 628.078 252.893L638.244 248.858C639.051 248.538 639.672 247.873 639.939 247.047L643.292 236.662C644.001 236.851 644.776 236.552 645.16 235.886L646.406 233.725C646.865 232.929 646.593 231.912 645.798 231.453L634.284 224.8ZM625.604 239.31L632.345 231.841L640.675 236.654L637.568 246.28C637.529 246.398 637.441 246.493 637.325 246.538L629.561 249.621L632.334 244.813C633.956 245.147 635.679 244.429 636.552 242.916C637.644 241.024 636.996 238.604 635.106 237.512C633.216 236.42 630.799 237.068 629.708 238.96C628.835 240.474 629.075 242.326 630.175 243.565L627.27 248.602L625.505 239.669C625.479 239.54 625.516 239.407 625.604 239.31ZM634.394 241.668C633.991 242.366 633.099 242.606 632.401 242.202C631.703 241.799 631.464 240.906 631.867 240.208C632.27 239.509 633.162 239.27 633.86 239.673C634.558 240.076 634.797 240.97 634.394 241.668Z" fill="#6B7280"/>
<path d="M725.908 540L729.253 488.887L787.78 484.278L793.214 540H725.908Z" fill="#475569"/>
<path d="M725.908 540L729.253 488.887L787.78 484.278L793.214 540H725.908Z" fill="url(#paint9_linear_465_60)"/>
<path d="M761.64 512.555L758.316 540H766.21L761.64 512.555Z" fill="url(#paint10_linear_465_60)"/>
<path fill-rule="evenodd" clip-rule="evenodd" d="M766.625 500.912V512.139C766.625 516.962 770.531 520.872 775.35 520.872C780.168 520.872 784.075 516.962 784.075 512.139V500.912H766.625ZM766.331 499.249C765.575 499.249 764.963 499.861 764.963 500.618V512.139C764.963 517.881 769.613 522.535 775.35 522.535C781.086 522.535 785.736 517.881 785.736 512.139V500.618C785.736 499.861 785.124 499.249 784.368 499.249H766.331Z" fill="#C8D8FA" fill-opacity="0.4"/>
<path fill-rule="evenodd" clip-rule="evenodd" d="M740.035 500.912V512.971C740.035 517.335 743.569 520.872 747.929 520.872C752.289 520.872 755.823 517.335 755.823 512.971V500.912H740.035ZM739.742 499.249C738.985 499.249 738.373 499.861 738.373 500.618V512.971C738.373 518.253 742.652 522.535 747.929 522.535C753.206 522.535 757.485 518.253 757.485 512.971V500.618C757.485 499.861 756.872 499.249 756.116 499.249H739.742Z" fill="#C8D8FA" fill-opacity="0.4"/>
<path d="M727.57 486.773H791.553V489.268C791.553 490.187 790.809 490.932 789.891 490.932H729.232C728.314 490.932 727.57 490.187 727.57 489.268V486.773Z" fill="#F9FAFB"/>
<path d="M727.57 486.773H791.553V489.268C791.553 490.187 790.809 490.932 789.891 490.932H729.232C728.314 490.932 727.57 490.187 727.57 489.268V486.773Z" fill="url(#paint11_linear_465_60)"/>
<path d="M658.602 328.758C666.579 329.756 671.066 342.757 672.313 349.133L664.834 355.371C663.865 352.599 661.261 346.306 658.602 343.312C655.279 339.569 648.631 327.51 658.602 328.758Z" fill="#FDBA8C"/>
<path d="M658.602 328.758C666.579 329.756 671.066 342.757 672.313 349.133L664.834 355.371C663.865 352.599 661.261 346.306 658.602 343.312C655.279 339.569 648.631 327.51 658.602 328.758Z" fill="url(#paint12_linear_465_60)"/>
<path d="M672.579 345.899L661.829 349.812C660.965 350.126 660.521 351.082 660.836 351.946L687.52 425.037C689.982 431.783 697.106 435.609 704.084 433.933L723.001 429.389L725.425 485.182C725.463 486.072 726.195 486.773 727.085 486.773H791.491C792.433 486.773 793.187 485.998 793.147 485.057C792.467 469.185 789.867 436.497 786.983 419.825C783.273 398.368 775.472 399.021 770.481 399.44L770.364 399.449C765.379 399.865 760.809 397.785 754.577 396.954C749.591 396.288 719.538 404.162 705.136 408.181L674.636 346.722C674.259 345.964 673.374 345.609 672.579 345.899Z" fill="#F9FAFB"/>
<path d="M672.579 345.899L661.829 349.812C660.965 350.126 660.521 351.082 660.836 351.946L687.52 425.037C689.982 431.783 697.106 435.609 704.084 433.933L723.001 429.389L725.425 485.182C725.463 486.072 726.195 486.773 727.085 486.773H791.491C792.433 486.773 793.187 485.998 793.147 485.057C792.467 469.185 789.867 436.497 786.983 419.825C783.273 398.368 775.472 399.021 770.481 399.44L770.364 399.449C765.379 399.865 760.809 397.785 754.577 396.954C749.591 396.288 719.538 404.162 705.136 408.181L674.636 346.722C674.259 345.964 673.374 345.609 672.579 345.899Z" fill="url(#paint13_linear_465_60)"/>
<path fill-rule="evenodd" clip-rule="evenodd" d="M752.989 486.773L741.698 424.814L721.807 429.676L723.002 429.389L725.425 485.182C725.464 486.072 726.196 486.773 727.086 486.773H752.989Z" fill="url(#paint14_linear_465_60)"/>
<path fill-rule="evenodd" clip-rule="evenodd" d="M787.008 419.971C775.362 422.445 766.625 432.797 766.625 445.191C766.625 459.412 778.13 470.945 792.334 470.972C792.296 470.422 792.257 469.868 792.218 469.308C778.986 469.218 768.287 458.455 768.287 445.191C768.287 433.622 776.423 423.957 787.281 421.614C787.191 421.051 787.099 420.503 787.008 419.971Z" fill="#C8D8FA"/>
<path d="M771.196 348.302C761.89 349.965 762.609 356.757 764.133 359.945V372.42C766.626 373.252 771.529 375.83 771.196 379.489C770.864 383.148 774.105 387.667 775.766 389.469C779.506 380.321 789.477 378.657 793.216 369.509C796.208 362.19 791.97 360.084 789.477 359.945C789.892 353.707 782.829 346.222 771.196 348.302Z" fill="#374151"/>
<path d="M756.654 401.944L761.64 382.4L774.104 378.657L775.766 389.469L774.935 402.775L756.654 401.944Z" fill="#FDBA8C"/>
<path d="M756.654 401.944L761.64 382.4L774.104 378.657L775.766 389.469L774.935 402.775L756.654 401.944Z" fill="url(#paint15_linear_465_60)"/>
<path d="M776.182 372.836C777.428 381.568 755.408 389.885 755.408 379.073C755.408 376.882 755.87 374.627 756.619 372.42C756.808 371.862 755.6 372.139 755.824 371.588C756.109 370.886 757.835 369.36 758.164 368.677C760.584 363.663 764.047 359.283 766.21 357.034C765.656 363.411 765.629 375.497 769.95 372.836C774.271 370.174 775.905 371.727 776.182 372.836Z" fill="#FDBA8C"/>
<path d="M763.471 368.112C763.405 368.584 762.969 368.913 762.496 368.847C762.023 368.78 761.694 368.343 761.76 367.871C761.827 367.397 762.264 367.068 762.737 367.135C763.209 367.201 763.539 367.639 763.471 368.112Z" fill="#111928"/>
<path fill-rule="evenodd" clip-rule="evenodd" d="M763.162 364.725C762.75 364.638 762.32 364.774 761.84 365.041C761.64 365.153 761.386 365.081 761.275 364.88C761.164 364.679 761.236 364.426 761.437 364.315C761.97 364.018 762.623 363.762 763.333 363.911C764.053 364.063 764.717 364.604 765.336 365.633C765.455 365.829 765.391 366.084 765.195 366.203C764.998 366.322 764.743 366.259 764.624 366.062C764.066 365.135 763.566 364.81 763.162 364.725Z" fill="#111928"/>
<path fill-rule="evenodd" clip-rule="evenodd" d="M759.955 366.734C760.126 366.887 760.142 367.149 759.99 367.321L756.196 371.6C756.128 371.676 756.148 371.796 756.237 371.847L758.366 373.057C758.565 373.171 758.635 373.425 758.521 373.625C758.408 373.824 758.155 373.894 757.955 373.78L755.826 372.569C755.278 372.257 755.156 371.52 755.574 371.048L759.369 366.768C759.521 366.597 759.783 366.581 759.955 366.734Z" fill="#111928"/>
<path fill-rule="evenodd" clip-rule="evenodd" d="M758.483 377.223C759.138 377.423 759.802 377.299 760.345 376.911C760.533 376.778 760.792 376.822 760.925 377.009C761.058 377.196 761.014 377.456 760.827 377.589C760.085 378.118 759.155 378.298 758.241 378.019C757.328 377.739 756.479 377.017 755.846 375.829C755.738 375.627 755.814 375.375 756.017 375.267C756.219 375.159 756.471 375.235 756.579 375.438C757.133 376.478 757.828 377.022 758.483 377.223Z" fill="#111928"/>
<path fill-rule="evenodd" clip-rule="evenodd" d="M773.224 375.362C773.553 374.847 773.612 374.291 773.566 373.699C773.549 373.469 773.721 373.27 773.949 373.252C774.178 373.235 774.377 373.406 774.394 373.636C774.447 374.319 774.389 375.084 773.923 375.811C773.46 376.535 772.629 377.161 771.266 377.66C771.05 377.739 770.811 377.628 770.732 377.412C770.653 377.197 770.765 376.958 770.98 376.879C772.243 376.417 772.891 375.88 773.224 375.362Z" fill="#111928"/>
<path d="M761.64 265.551L742.943 254.739L750.837 231.453C750.679 210.911 754.713 185.488 772.026 182.385C794.296 178.393 804.018 236.166 806.095 265.551H761.64Z" fill="#475569"/>
<path fill-rule="evenodd" clip-rule="evenodd" d="M753.311 205.9L758.73 206.503L750.836 231.453C750.773 223.134 751.396 214.014 753.311 205.9Z" fill="url(#paint16_linear_465_60)"/>
<path d="M772.262 260.291L758.316 257.65L759.147 265.551H790.723L782.829 233.116L774.147 259.183C773.885 259.972 773.08 260.446 772.262 260.291Z" fill="url(#paint17_linear_465_60)"/>
<path d="M693.502 240.601C698.488 242.597 723.555 250.858 743.359 254.74L767.041 259.314C764.687 264.996 757.984 276.612 750.006 277.61C740.035 278.858 692.256 249.334 676.884 247.67C661.511 246.007 656.11 236.027 661.511 233.948C665.832 232.285 673.56 234.641 676.884 236.027V232.285C679.376 233.532 687.27 238.106 693.502 240.601Z" fill="#FDBA8C"/>
<path d="M693.502 240.601C698.488 242.597 723.555 250.858 743.359 254.74L767.041 259.314C764.687 264.996 757.984 276.612 750.006 277.61C740.035 278.858 692.256 249.334 676.884 247.67C661.511 246.007 656.11 236.027 661.511 233.948C665.832 232.285 673.56 234.641 676.884 236.027V232.285C679.376 233.532 687.27 238.106 693.502 240.601Z" fill="url(#paint18_linear_465_60)"/>
<path d="M744.19 138.722C735.548 145.043 738.65 151.613 741.281 154.108L765.794 171.989C766.071 167.276 766.708 156.188 767.041 149.534C767.373 142.881 763.578 141.772 761.64 142.049C759.423 138.306 752.832 132.402 744.19 138.722Z" fill="#262F3E"/>
<path d="M765.795 189.87L755.408 174.068L761.64 159.514L774.52 182.801C773.19 186.46 768.149 189.038 765.795 189.87Z" fill="#FDBA8C"/>
<path d="M765.795 189.87L755.408 174.068L761.64 159.514L774.52 182.801C773.19 186.46 768.149 189.038 765.795 189.87Z" fill="url(#paint19_linear_465_60)"/>
<path d="M762.055 153.692C764.548 154.94 761.224 179.89 751.253 177.811C747.947 177.121 745.669 174.123 744.134 170.326C743.969 169.918 743.167 170.334 743.019 169.91C742.783 169.233 743.214 167.706 743.019 166.999C741.722 162.317 741.281 157.147 741.281 153.692C749.175 150.365 754.576 158.682 755.823 157.851C757.069 157.019 759.562 152.445 762.055 153.692Z" fill="#FDBA8C"/>
<path d="M746.761 162.428C747.003 162.84 746.866 163.37 746.456 163.613C746.044 163.855 745.514 163.719 745.273 163.307C745.03 162.896 745.166 162.366 745.577 162.123C745.989 161.88 746.518 162.017 746.761 162.428Z" fill="#111928"/>
<path fill-rule="evenodd" clip-rule="evenodd" d="M745.662 159.753C745.03 159.85 744.558 160.18 744.133 160.607C743.972 160.77 743.709 160.77 743.546 160.608C743.384 160.446 743.383 160.183 743.545 160.02C744.036 159.526 744.662 159.065 745.537 158.931C746.406 158.798 747.455 158.999 748.78 159.686C748.983 159.792 749.063 160.043 748.958 160.247C748.852 160.451 748.601 160.53 748.398 160.425C747.167 159.786 746.3 159.656 745.662 159.753Z" fill="#111928"/>
<path fill-rule="evenodd" clip-rule="evenodd" d="M743.152 163.544C743.381 163.556 743.557 163.752 743.545 163.981L743.242 169.694C743.236 169.796 743.326 169.878 743.427 169.862L745.846 169.481C746.073 169.446 746.285 169.601 746.32 169.828C746.356 170.054 746.201 170.267 745.975 170.303L743.556 170.683C742.933 170.781 742.378 170.28 742.412 169.65L742.715 163.937C742.727 163.708 742.923 163.532 743.152 163.544Z" fill="#111928"/>
<path fill-rule="evenodd" clip-rule="evenodd" d="M749.564 173.027C750.181 172.772 750.616 172.217 750.788 171.479C750.839 171.255 751.063 171.116 751.286 171.168C751.51 171.22 751.648 171.443 751.597 171.667C751.375 172.623 750.786 173.421 749.883 173.795C748.981 174.169 747.845 174.088 746.587 173.45C746.383 173.347 746.3 173.096 746.404 172.891C746.508 172.687 746.758 172.605 746.963 172.708C748.07 173.27 748.947 173.283 749.564 173.027Z" fill="#111928"/>
<path fill-rule="evenodd" clip-rule="evenodd" d="M760.912 158.4C760.85 157.792 760.548 157.321 760.145 156.886C759.988 156.718 759.997 156.455 760.166 156.298C760.334 156.142 760.597 156.152 760.753 156.32C761.22 156.822 761.65 157.456 761.739 158.315C761.826 159.171 761.568 160.178 760.812 161.419C760.692 161.615 760.436 161.678 760.241 161.558C760.045 161.438 759.982 161.183 760.102 160.986C760.803 159.837 760.975 159.013 760.912 158.4Z" fill="#111928"/>
<path d="M446.122 372.941L436.954 368.995L432.588 382.15L446.122 386.974L468.39 353.647L493.276 321.636C506.957 312.124 496.856 310.586 490.219 313.743C483.584 316.9 458.056 354.524 446.122 372.941Z" fill="#FDBA8C"/>
<path d="M446.122 372.941L436.954 368.995L432.588 382.15L446.122 386.974L468.39 353.647L493.276 321.636C506.957 312.124 496.856 310.586 490.219 313.743C483.584 316.9 458.056 354.524 446.122 372.941Z" fill="url(#paint20_linear_465_60)"/>
<path d="M488.26 307.134H519.005V320.857C519.005 329.354 512.122 336.242 503.632 336.242C495.142 336.242 488.26 329.354 488.26 320.857V307.134Z" fill="#111928"/>
<path fill-rule="evenodd" clip-rule="evenodd" d="M484.054 263.371C484.697 261.889 486.181 260.977 488.577 260.977C489.652 260.977 490.586 261.542 491.383 262.46C492.178 263.376 492.87 264.676 493.478 266.246C494.296 268.356 494.979 271.002 495.547 273.958C495.799 273.804 496.032 273.628 496.249 273.438C497.127 272.669 497.772 271.634 498.396 270.543C498.483 270.391 498.569 270.236 498.656 270.082C499.179 269.155 499.713 268.208 500.367 267.471C501.152 266.587 502.141 265.967 503.534 265.967V266.799C502.435 266.799 501.658 267.269 500.988 268.024C500.397 268.688 499.915 269.545 499.388 270.478C499.299 270.635 499.209 270.794 499.117 270.955C498.494 272.047 497.789 273.195 496.797 274.064C496.467 274.353 496.106 274.61 495.709 274.825C495.923 276.005 496.12 277.23 496.301 278.487C497.676 288.043 498.133 299.5 498.133 307.134H497.302C497.302 299.522 496.846 288.108 495.478 278.605C495.309 277.427 495.126 276.28 494.928 275.174C494.287 275.402 493.562 275.531 492.732 275.531C490.93 275.531 489.172 274.605 487.714 273.279C486.251 271.949 485.046 270.18 484.348 268.406C483.655 266.646 483.433 264.804 484.054 263.371ZM494.775 274.343C494.203 271.326 493.519 268.651 492.703 266.546C492.111 265.018 491.461 263.818 490.756 263.005C490.054 262.197 489.331 261.809 488.577 261.809C486.404 261.809 485.29 262.612 484.817 263.702C484.322 264.843 484.464 266.432 485.12 268.102C485.773 269.759 486.905 271.42 488.272 272.664C489.644 273.91 491.211 274.699 492.732 274.699C493.521 274.699 494.193 274.57 494.775 274.343Z" fill="#6B7280"/>
<path fill-rule="evenodd" clip-rule="evenodd" d="M522.697 263.371C522.053 261.889 520.57 260.977 518.174 260.977C517.098 260.977 516.165 261.542 515.368 262.46C514.573 263.376 513.881 264.676 513.273 266.246C512.455 268.356 511.772 271.002 511.203 273.958C510.952 273.804 510.719 273.628 510.501 273.438C509.624 272.669 508.978 271.634 508.355 270.543C508.268 270.391 508.182 270.236 508.094 270.082C507.572 269.155 507.038 268.208 506.384 267.471C505.599 266.587 504.61 265.967 503.217 265.967V266.799C504.316 266.799 505.093 267.269 505.763 268.024C506.353 268.688 506.836 269.545 507.363 270.478C507.452 270.635 507.542 270.794 507.634 270.955C508.257 272.047 508.962 273.195 509.954 274.064C510.284 274.353 510.644 274.61 511.042 274.825C510.827 276.005 510.63 277.23 510.45 278.487C509.075 288.043 508.618 299.5 508.618 307.134H509.449C509.449 299.522 509.905 288.108 511.272 278.605C511.441 277.427 511.625 276.28 511.823 275.174C512.464 275.402 513.188 275.531 514.019 275.531C515.821 275.531 517.579 274.605 519.037 273.279C520.5 271.949 521.704 270.18 522.403 268.406C523.096 266.646 523.318 264.804 522.697 263.371ZM511.976 274.343C512.547 271.326 513.232 268.651 514.047 266.546C514.64 265.018 515.29 263.818 515.995 263.005C516.697 262.197 517.42 261.809 518.174 261.809C520.347 261.809 521.461 262.612 521.934 263.702C522.429 264.843 522.287 266.432 521.63 268.102C520.978 269.759 519.846 271.42 518.479 272.664C517.106 273.91 515.54 274.699 514.019 274.699C513.23 274.699 512.558 274.57 511.976 274.343Z" fill="#6B7280"/>
<path fill-rule="evenodd" clip-rule="evenodd" d="M519.006 307.134C519.006 293.952 528.035 282.593 535.014 271.414C538.56 265.733 540.61 259.02 540.61 251.829C540.61 231.389 524.055 214.82 503.633 214.82C483.211 214.82 466.656 231.389 466.656 251.829C466.656 259.02 468.706 265.733 472.252 271.414C479.232 282.593 488.261 293.952 488.261 307.134H519.006Z" fill="url(#paint21_linear_465_60)"/>
<path d="M445.882 380.321L439.649 378.242L433.002 394.875C436.741 397.231 446.463 400.364 455.437 394.043C466.655 386.142 484.105 331.668 492.414 327.51C500.724 323.352 503.216 315.867 500.724 315.451C498.231 315.035 492.414 316.699 486.598 322.52C481.944 327.178 457.515 362.995 445.882 380.321Z" fill="#FDBA8C"/>
<path d="M445.882 380.321L439.649 378.242L433.002 394.875C436.741 397.231 446.463 400.364 455.437 394.043C466.655 386.142 484.105 331.668 492.414 327.51C500.724 323.352 503.216 315.867 500.724 315.451C498.231 315.035 492.414 316.699 486.598 322.52C481.944 327.178 457.515 362.995 445.882 380.321Z" fill="url(#paint22_linear_465_60)"/>
<path d="M439.651 401.162V369.283C439.651 368.656 439.299 368.083 438.74 367.8L410.152 353.292L398.104 356.618C387.468 359.612 379.823 406.934 377.33 430.22H431.341V401.528L437.663 402.794C438.691 402.999 439.651 402.212 439.651 401.162Z" fill="#F9FAFB"/>
<path d="M404.334 430.221L409.735 396.954L431.34 401.473V430.221H404.334Z" fill="url(#paint23_linear_465_60)"/>
<path d="M415.553 369.509L439.65 378.241V368.262L425.524 361.192L415.553 369.509Z" fill="url(#paint24_linear_465_60)"/>
<path d="M390.21 308.382C402.175 305.388 405.167 314.065 405.167 318.778L398.934 339.153C394.364 340.124 383.978 341.149 378.992 337.49C372.76 332.916 375.253 312.124 390.21 308.382Z" fill="#111928"/>
<path d="M381.068 312.956C381.068 320.765 374.744 327.094 366.942 327.094C359.141 327.094 352.816 320.765 352.816 312.956C352.816 305.148 359.141 298.818 366.942 298.818C374.744 298.818 381.068 305.148 381.068 312.956Z" fill="#111928"/>
<path d="M398.103 356.618C397.438 350.63 393.671 340.54 391.871 336.243L404.335 337.49L410.152 353.292C406.828 356.951 400.734 357.034 398.103 356.618Z" fill="#FDBA8C"/>
<path d="M398.103 356.618C397.438 350.63 393.671 340.54 391.871 336.243L404.335 337.49L410.152 353.292C406.828 356.951 400.734 357.034 398.103 356.618Z" fill="url(#paint25_linear_465_60)"/>
<path d="M392.703 337.906C398.935 341.648 412.23 344.559 413.476 335.826C413.812 333.471 413.087 330.671 411.814 327.819C411.645 327.439 412.417 327.475 412.23 327.094C411.956 326.538 410.712 325.567 410.405 325.015C407.821 320.354 404.215 315.898 401.843 313.372C401.427 315.174 400.596 321.316 400.596 325.431C400.596 330.421 398.519 332.084 394.364 332.084C390.938 332.084 386.471 334.163 392.703 337.906Z" fill="#FDBA8C"/>
<path d="M403.705 324.039C403.711 324.516 404.103 324.899 404.58 324.893C405.057 324.887 405.439 324.495 405.433 324.018C405.427 323.54 405.036 323.157 404.559 323.164C404.081 323.169 403.699 323.561 403.705 324.039Z" fill="#111928"/>
<path fill-rule="evenodd" clip-rule="evenodd" d="M412.623 329.845L406.219 332.404C407.981 334.381 410.36 335.246 413.507 333.62C413.392 332.419 413.08 331.147 412.623 329.845Z" fill="white"/>
<path fill-rule="evenodd" clip-rule="evenodd" d="M403.766 320.781C404.359 320.635 404.904 320.76 405.449 320.995C405.66 321.085 405.904 320.987 405.995 320.776C406.085 320.565 405.987 320.321 405.777 320.23C405.147 319.959 404.406 319.767 403.567 319.973C402.733 320.179 401.873 320.762 400.96 321.893C400.815 322.072 400.843 322.334 401.022 322.478C401.2 322.622 401.462 322.594 401.606 322.416C402.451 321.369 403.168 320.928 403.766 320.781Z" fill="#111928"/>
<path fill-rule="evenodd" clip-rule="evenodd" d="M408.217 322.047C408.037 322.188 408.006 322.45 408.148 322.631L411.683 327.126C411.747 327.206 411.72 327.324 411.628 327.37L409.432 328.453C409.226 328.555 409.141 328.804 409.243 329.01C409.344 329.216 409.593 329.301 409.799 329.199L411.996 328.116C412.561 327.836 412.726 327.107 412.336 326.611L408.801 322.116C408.659 321.935 408.397 321.905 408.217 322.047Z" fill="#111928"/>
<path fill-rule="evenodd" clip-rule="evenodd" d="M392.838 335.686C392.299 335.399 391.976 334.942 391.726 334.403C391.629 334.196 391.382 334.105 391.174 334.202C390.966 334.299 390.876 334.547 390.973 334.754C391.262 335.377 391.686 336.014 392.449 336.42C393.207 336.824 394.237 336.962 395.671 336.729C395.897 336.692 396.051 336.478 396.014 336.252C395.977 336.025 395.764 335.871 395.537 335.908C394.21 336.125 393.382 335.974 392.838 335.686Z" fill="#111928"/>
<circle cx="505.032" cy="194.5" r="3.60803" fill="#FF0A01"/>
<circle cx="516.577" cy="194.5" r="3.60803" fill="#FFCA0A"/>
<circle cx="529.567" cy="194.5" r="3.60803" fill="#5CB546"/>
</g>
</g>
</g>
<path d="M667 20.5C667 18 670 18 671.5 18H544.5C546 18 549 18 549 20.5V30C549 34.4183 552.582 38 557 38H659C663.418 38 667 34.4183 667 30V20.5Z" fill="black"/>
<defs>
<filter id="filter0_f_465_60" x="1184.5" y="677" width="29" height="44" filterUnits="userSpaceOnUse" color-interpolation-filters="sRGB">
<feFlood flood-opacity="0" result="BackgroundImageFix"/>
<feBlend mode="normal" in="SourceGraphic" in2="BackgroundImageFix" result="shape"/>
<feGaussianBlur stdDeviation="4" result="effect1_foregroundBlur_465_60"/>
</filter>
<filter id="filter1_f_465_60" x="-0.5" y="675" width="31" height="48" filterUnits="userSpaceOnUse" color-interpolation-filters="sRGB">
<feFlood flood-opacity="0" result="BackgroundImageFix"/>
<feBlend mode="normal" in="SourceGraphic" in2="BackgroundImageFix" result="shape"/>
<feGaussianBlur stdDeviation="5" result="effect1_foregroundBlur_465_60"/>
</filter>
<clipPath id="bgblur_4_465_60_clip_path" transform="translate(-20.8929 85.6071)"><rect x="124.5" y="18" width="967" height="23"/>
</clipPath><filter id="filter3_d_465_60" x="133.737" y="21.9516" width="13.5257" height="15.3592" filterUnits="userSpaceOnUse" color-interpolation-filters="sRGB">
<feFlood flood-opacity="0" result="BackgroundImageFix"/>
<feColorMatrix in="SourceAlpha" type="matrix" values="0 0 0 0 0 0 0 0 0 0 0 0 0 0 0 0 0 0 127 0" result="hardAlpha"/>
<feOffset dy="1.38143"/>
<feGaussianBlur stdDeviation="1.38143"/>
<feColorMatrix type="matrix" values="0 0 0 0 0 0 0 0 0 0 0 0 0 0 0 0 0 0 0.15 0"/>
<feBlend mode="normal" in2="BackgroundImageFix" result="effect1_dropShadow_465_60"/>
<feBlend mode="normal" in="SourceGraphic" in2="effect1_dropShadow_465_60" result="shape"/>
</filter>
<filter id="filter4_d_465_60" x="154.421" y="24.1381" width="31.0609" height="11.846" filterUnits="userSpaceOnUse" color-interpolation-filters="sRGB">
<feFlood flood-opacity="0" result="BackgroundImageFix"/>
<feColorMatrix in="SourceAlpha" type="matrix" values="0 0 0 0 0 0 0 0 0 0 0 0 0 0 0 0 0 0 127 0" result="hardAlpha"/>
<feOffset dy="1.38143"/>
<feGaussianBlur stdDeviation="1.38143"/>
<feColorMatrix type="matrix" values="0 0 0 0 0 0 0 0 0 0 0 0 0 0 0 0 0 0 0.15 0"/>
<feBlend mode="normal" in2="BackgroundImageFix" result="effect1_dropShadow_465_60"/>
<feBlend mode="normal" in="SourceGraphic" in2="effect1_dropShadow_465_60" result="shape"/>
</filter>
<filter id="filter5_d_465_60" x="193.444" y="24.31" width="17.9749" height="11.6663" filterUnits="userSpaceOnUse" color-interpolation-filters="sRGB">
<feFlood flood-opacity="0" result="BackgroundImageFix"/>
<feColorMatrix in="SourceAlpha" type="matrix" values="0 0 0 0 0 0 0 0 0 0 0 0 0 0 0 0 0 0 127 0" result="hardAlpha"/>
<feOffset dy="1.38143"/>
<feGaussianBlur stdDeviation="1.38143"/>
<feColorMatrix type="matrix" values="0 0 0 0 0 0 0 0 0 0 0 0 0 0 0 0 0 0 0.15 0"/>
<feBlend mode="normal" in2="BackgroundImageFix" result="effect1_dropShadow_465_60"/>
<feBlend mode="normal" in="SourceGraphic" in2="effect1_dropShadow_465_60" result="shape"/>
</filter>
<filter id="filter6_d_465_60" x="219.444" y="24.31" width="19.4476" height="11.6546" filterUnits="userSpaceOnUse" color-interpolation-filters="sRGB">
<feFlood flood-opacity="0" result="BackgroundImageFix"/>
<feColorMatrix in="SourceAlpha" type="matrix" values="0 0 0 0 0 0 0 0 0 0 0 0 0 0 0 0 0 0 127 0" result="hardAlpha"/>
<feOffset dy="1.38143"/>
<feGaussianBlur stdDeviation="1.38143"/>
<feColorMatrix type="matrix" values="0 0 0 0 0 0 0 0 0 0 0 0 0 0 0 0 0 0 0.15 0"/>
<feBlend mode="normal" in2="BackgroundImageFix" result="effect1_dropShadow_465_60"/>
<feBlend mode="normal" in="SourceGraphic" in2="effect1_dropShadow_465_60" result="shape"/>
</filter>
<filter id="filter7_d_465_60" x="247.011" y="24.31" width="23.6507" height="11.6663" filterUnits="userSpaceOnUse" color-interpolation-filters="sRGB">
<feFlood flood-opacity="0" result="BackgroundImageFix"/>
<feColorMatrix in="SourceAlpha" type="matrix" values="0 0 0 0 0 0 0 0 0 0 0 0 0 0 0 0 0 0 127 0" result="hardAlpha"/>
<feOffset dy="1.38143"/>
<feGaussianBlur stdDeviation="1.38143"/>
<feColorMatrix type="matrix" values="0 0 0 0 0 0 0 0 0 0 0 0 0 0 0 0 0 0 0.15 0"/>
<feBlend mode="normal" in2="BackgroundImageFix" result="effect1_dropShadow_465_60"/>
<feBlend mode="normal" in="SourceGraphic" in2="effect1_dropShadow_465_60" result="shape"/>
</filter>
<filter id="filter8_d_465_60" x="278.214" y="24.5951" width="15.4749" height="11.4359" filterUnits="userSpaceOnUse" color-interpolation-filters="sRGB">
<feFlood flood-opacity="0" result="BackgroundImageFix"/>
<feColorMatrix in="SourceAlpha" type="matrix" values="0 0 0 0 0 0 0 0 0 0 0 0 0 0 0 0 0 0 127 0" result="hardAlpha"/>
<feOffset dy="1.38143"/>
<feGaussianBlur stdDeviation="1.38143"/>
<feColorMatrix type="matrix" values="0 0 0 0 0 0 0 0 0 0 0 0 0 0 0 0 0 0 0.15 0"/>
<feBlend mode="normal" in2="BackgroundImageFix" result="effect1_dropShadow_465_60"/>
<feBlend mode="normal" in="SourceGraphic" in2="effect1_dropShadow_465_60" result="shape"/>
</filter>
<filter id="filter9_d_465_60" x="301.085" y="24.31" width="35.7562" height="11.6663" filterUnits="userSpaceOnUse" color-interpolation-filters="sRGB">
<feFlood flood-opacity="0" result="BackgroundImageFix"/>
<feColorMatrix in="SourceAlpha" type="matrix" values="0 0 0 0 0 0 0 0 0 0 0 0 0 0 0 0 0 0 127 0" result="hardAlpha"/>
<feOffset dy="1.38143"/>
<feGaussianBlur stdDeviation="1.38143"/>
<feColorMatrix type="matrix" values="0 0 0 0 0 0 0 0 0 0 0 0 0 0 0 0 0 0 0.15 0"/>
<feBlend mode="normal" in2="BackgroundImageFix" result="effect1_dropShadow_465_60"/>
<feBlend mode="normal" in="SourceGraphic" in2="effect1_dropShadow_465_60" result="shape"/>
</filter>
<filter id="filter10_d_465_60" x="344.444" y="24.4623" width="22.2601" height="12.846" filterUnits="userSpaceOnUse" color-interpolation-filters="sRGB">
<feFlood flood-opacity="0" result="BackgroundImageFix"/>
<feColorMatrix in="SourceAlpha" type="matrix" values="0 0 0 0 0 0 0 0 0 0 0 0 0 0 0 0 0 0 127 0" result="hardAlpha"/>
<feOffset dy="1.38143"/>
<feGaussianBlur stdDeviation="1.38143"/>
<feColorMatrix type="matrix" values="0 0 0 0 0 0 0 0 0 0 0 0 0 0 0 0 0 0 0.15 0"/>
<feBlend mode="normal" in2="BackgroundImageFix" result="effect1_dropShadow_465_60"/>
<feBlend mode="normal" in="SourceGraphic" in2="effect1_dropShadow_465_60" result="shape"/>
</filter>
<filter id="filter11_d_465_60" x="917.024" y="24.0102" width="20.9515" height="12.4974" filterUnits="userSpaceOnUse" color-interpolation-filters="sRGB">
<feFlood flood-opacity="0" result="BackgroundImageFix"/>
<feColorMatrix in="SourceAlpha" type="matrix" values="0 0 0 0 0 0 0 0 0 0 0 0 0 0 0 0 0 0 127 0" result="hardAlpha"/>
<feOffset dy="1.38143"/>
<feGaussianBlur stdDeviation="1.38143"/>
<feColorMatrix type="matrix" values="0 0 0 0 0 0 0 0 0 0 0 0 0 0 0 0 0 0 0.15 0"/>
<feBlend mode="normal" in2="BackgroundImageFix" result="effect1_dropShadow_465_60"/>
<feBlend mode="normal" in="SourceGraphic" in2="effect1_dropShadow_465_60" result="shape"/>
</filter>
<filter id="filter12_d_465_60" x="940.936" y="24.2592" width="14.6702" height="12.1117" filterUnits="userSpaceOnUse" color-interpolation-filters="sRGB">
<feFlood flood-opacity="0" result="BackgroundImageFix"/>
<feColorMatrix in="SourceAlpha" type="matrix" values="0 0 0 0 0 0 0 0 0 0 0 0 0 0 0 0 0 0 127 0" result="hardAlpha"/>
<feOffset dy="1.38143"/>
<feGaussianBlur stdDeviation="1.38143"/>
<feColorMatrix type="matrix" values="0 0 0 0 0 0 0 0 0 0 0 0 0 0 0 0 0 0 0.15 0"/>
<feBlend mode="normal" in2="BackgroundImageFix" result="effect1_dropShadow_465_60"/>
<feBlend mode="normal" in="SourceGraphic" in2="effect1_dropShadow_465_60" result="shape"/>
</filter>
<filter id="filter13_d_465_60" x="962.636" y="23.6576" width="13.2367" height="13.307" filterUnits="userSpaceOnUse" color-interpolation-filters="sRGB">
<feFlood flood-opacity="0" result="BackgroundImageFix"/>
<feColorMatrix in="SourceAlpha" type="matrix" values="0 0 0 0 0 0 0 0 0 0 0 0 0 0 0 0 0 0 127 0" result="hardAlpha"/>
<feOffset dy="1.38143"/>
<feGaussianBlur stdDeviation="1.38143"/>
<feColorMatrix type="matrix" values="0 0 0 0 0 0 0 0 0 0 0 0 0 0 0 0 0 0 0.15 0"/>
<feBlend mode="normal" in2="BackgroundImageFix" result="effect1_dropShadow_465_60"/>
<feBlend mode="normal" in="SourceGraphic" in2="effect1_dropShadow_465_60" result="shape"/>
</filter>
<filter id="filter14_d_465_60" x="983.233" y="23.7475" width="13.6429" height="13.1195" filterUnits="userSpaceOnUse" color-interpolation-filters="sRGB">
<feFlood flood-opacity="0" result="BackgroundImageFix"/>
<feColorMatrix in="SourceAlpha" type="matrix" values="0 0 0 0 0 0 0 0 0 0 0 0 0 0 0 0 0 0 127 0" result="hardAlpha"/>
<feOffset dy="1.38143"/>
<feGaussianBlur stdDeviation="1.38143"/>
<feColorMatrix type="matrix" values="0 0 0 0 0 0 0 0 0 0 0 0 0 0 0 0 0 0 0.15 0"/>
<feBlend mode="normal" in2="BackgroundImageFix" result="effect1_dropShadow_465_60"/>
<feBlend mode="normal" in="SourceGraphic" in2="effect1_dropShadow_465_60" result="shape"/>
</filter>
<filter id="filter15_d_465_60" x="1001.18" y="24.5951" width="44.8265" height="11.4359" filterUnits="userSpaceOnUse" color-interpolation-filters="sRGB">
<feFlood flood-opacity="0" result="BackgroundImageFix"/>
<feColorMatrix in="SourceAlpha" type="matrix" values="0 0 0 0 0 0 0 0 0 0 0 0 0 0 0 0 0 0 127 0" result="hardAlpha"/>
<feOffset dy="1.38143"/>
<feGaussianBlur stdDeviation="1.38143"/>
<feColorMatrix type="matrix" values="0 0 0 0 0 0 0 0 0 0 0 0 0 0 0 0 0 0 0.15 0"/>
<feBlend mode="normal" in2="BackgroundImageFix" result="effect1_dropShadow_465_60"/>
<feBlend mode="normal" in="SourceGraphic" in2="effect1_dropShadow_465_60" result="shape"/>
</filter>
<filter id="filter16_d_465_60" x="1046.23" y="24.5951" width="35.932" height="11.4359" filterUnits="userSpaceOnUse" color-interpolation-filters="sRGB">
<feFlood flood-opacity="0" result="BackgroundImageFix"/>
<feColorMatrix in="SourceAlpha" type="matrix" values="0 0 0 0 0 0 0 0 0 0 0 0 0 0 0 0 0 0 127 0" result="hardAlpha"/>
<feOffset dy="1.38143"/>
<feGaussianBlur stdDeviation="1.38143"/>
<feColorMatrix type="matrix" values="0 0 0 0 0 0 0 0 0 0 0 0 0 0 0 0 0 0 0.15 0"/>
<feBlend mode="normal" in2="BackgroundImageFix" result="effect1_dropShadow_465_60"/>
<feBlend mode="normal" in="SourceGraphic" in2="effect1_dropShadow_465_60" result="shape"/>
</filter>
<linearGradient id="paint0_linear_465_60" x1="608" y1="685" x2="608" y2="728" gradientUnits="userSpaceOnUse">
<stop stop-color="#AEAFB4"/>
<stop offset="0.192522" stop-color="#AFB0B5"/>
<stop offset="0.376094" stop-color="#AFB0B5"/>
<stop offset="0.598958" stop-color="#7D7E82"/>
<stop offset="0.713542" stop-color="#696A6F"/>
<stop offset="0.852125" stop-color="#838489"/>
<stop offset="0.931356" stop-color="#ABACB0"/>
</linearGradient>
<linearGradient id="paint1_linear_465_60" x1="1069.5" y1="731.25" x2="1149" y2="731.25" gradientUnits="userSpaceOnUse">
<stop stop-color="#8C8D91"/>
<stop offset="0.173014" stop-color="#525358"/>
<stop offset="0.31824" stop-color="#78797D"/>
<stop offset="0.465029" stop-color="#A0A0A2"/>
<stop offset="0.691458" stop-color="#9A9A9C"/>
<stop offset="0.825754" stop-color="#4F5055"/>
<stop offset="0.941311" stop-color="#9E9EA0"/>
<stop offset="1" stop-color="#848589"/>
</linearGradient>
<linearGradient id="paint2_linear_465_60" x1="1072.54" y1="732.875" x2="1145.93" y2="732.875" gradientUnits="userSpaceOnUse">
<stop stop-color="#575757"/>
<stop offset="0.0827846" stop-color="#2D2D2D"/>
<stop offset="0.490477" stop-color="#4E4E4E"/>
<stop offset="0.824814" stop-color="#2A2A2A"/>
<stop offset="1" stop-color="#5C5C5C"/>
</linearGradient>
<linearGradient id="paint3_linear_465_60" x1="66" y1="731.25" x2="145.5" y2="731.25" gradientUnits="userSpaceOnUse">
<stop stop-color="#8C8D91"/>
<stop offset="0.173014" stop-color="#525358"/>
<stop offset="0.31824" stop-color="#78797D"/>
<stop offset="0.465029" stop-color="#A0A0A2"/>
<stop offset="0.691458" stop-color="#9A9A9C"/>
<stop offset="0.825754" stop-color="#4F5055"/>
<stop offset="0.941311" stop-color="#9E9EA0"/>
<stop offset="1" stop-color="#848589"/>
</linearGradient>
<linearGradient id="paint4_linear_465_60" x1="69.043" y1="732.875" x2="142.428" y2="732.875" gradientUnits="userSpaceOnUse">
<stop stop-color="#575757"/>
<stop offset="0.0827846" stop-color="#2D2D2D"/>
<stop offset="0.490477" stop-color="#4E4E4E"/>
<stop offset="0.824814" stop-color="#2A2A2A"/>
<stop offset="1" stop-color="#5C5C5C"/>
</linearGradient>
<linearGradient id="paint5_linear_465_60" x1="502.5" y1="693" x2="713.5" y2="693" gradientUnits="userSpaceOnUse">
<stop stop-color="#25262B"/>
<stop offset="0.015659" stop-color="#606166"/>
<stop offset="0.035819" stop-color="#9FA0A4"/>
<stop offset="0.0504351" stop-color="#C8C8CE"/>
<stop offset="0.479167" stop-color="#D7D8DD"/>
<stop offset="0.941214" stop-color="#CBCBD3"/>
<stop offset="0.970403" stop-color="#A7A8AC"/>
<stop offset="0.980129" stop-color="#595A5E"/>
<stop offset="1" stop-color="#27282C"/>
</linearGradient>
<linearGradient id="paint6_linear_465_60" x1="1202.5" y1="702" x2="1121.5" y2="702" gradientUnits="userSpaceOnUse">
<stop stop-color="#65666B" stop-opacity="0"/>
<stop offset="0.259918" stop-color="#65666B"/>
<stop offset="1" stop-color="#65666B" stop-opacity="0"/>
</linearGradient>
<linearGradient id="paint7_linear_465_60" x1="84" y1="17" x2="2.87514e-08" y2="17" gradientUnits="userSpaceOnUse">
<stop stop-color="#65666B" stop-opacity="0"/>
<stop offset="0.259918" stop-color="#65666B"/>
<stop offset="1" stop-color="#65666B" stop-opacity="0"/>
</linearGradient>
<linearGradient id="paint8_linear_465_60" x1="607.5" y1="657" x2="607.5" y2="680" gradientUnits="userSpaceOnUse">
<stop stop-color="#222222"/>
<stop offset="0.0852114" stop-color="#242424"/>
<stop offset="0.830431" stop-color="#242424"/>
<stop offset="1" stop-color="#201F24"/>
</linearGradient>
<linearGradient id="paint9_linear_465_60" x1="855.12" y1="356.202" x2="773.569" y2="539.947" gradientUnits="userSpaceOnUse">
<stop stop-color="#111928"/>
<stop offset="1" stop-color="#111928" stop-opacity="0"/>
</linearGradient>
<linearGradient id="paint10_linear_465_60" x1="711.784" y1="528.357" x2="752.138" y2="561.517" gradientUnits="userSpaceOnUse">
<stop stop-color="#111928"/>
<stop offset="1" stop-color="#111928" stop-opacity="0"/>
</linearGradient>
<linearGradient id="paint11_linear_465_60" x1="788.644" y1="455.586" x2="757.86" y2="507.542" gradientUnits="userSpaceOnUse">
<stop stop-color="#C8D8FA"/>
<stop offset="1" stop-color="#C8D8FA" stop-opacity="0"/>
</linearGradient>
<linearGradient id="paint12_linear_465_60" x1="691.424" y1="379.905" x2="647.301" y2="346.699" gradientUnits="userSpaceOnUse">
<stop stop-color="#7F270F"/>
<stop offset="1" stop-color="#7F270F" stop-opacity="0"/>
</linearGradient>
<linearGradient id="paint13_linear_465_60" x1="554.32" y1="442.695" x2="691.482" y2="427.224" gradientUnits="userSpaceOnUse">
<stop stop-color="#C8D8FA"/>
<stop offset="1" stop-color="#C8D8FA" stop-opacity="0"/>
</linearGradient>
<linearGradient id="paint14_linear_465_60" x1="730.064" y1="374.083" x2="717.583" y2="463.127" gradientUnits="userSpaceOnUse">
<stop stop-color="#C8D8FA"/>
<stop offset="1" stop-color="#C8D8FA" stop-opacity="0"/>
</linearGradient>
<linearGradient id="paint15_linear_465_60" x1="767.872" y1="367.014" x2="776.902" y2="390.073" gradientUnits="userSpaceOnUse">
<stop stop-color="#7F270F"/>
<stop offset="1" stop-color="#7F270F" stop-opacity="0"/>
</linearGradient>
<linearGradient id="paint16_linear_465_60" x1="743.358" y1="238.938" x2="740.276" y2="210.974" gradientUnits="userSpaceOnUse">
<stop stop-color="#111928"/>
<stop offset="1" stop-color="#111928" stop-opacity="0"/>
</linearGradient>
<linearGradient id="paint17_linear_465_60" x1="760.394" y1="218.978" x2="801.537" y2="236.833" gradientUnits="userSpaceOnUse">
<stop stop-color="#111928"/>
<stop offset="1" stop-color="#111928" stop-opacity="0"/>
</linearGradient>
<linearGradient id="paint18_linear_465_60" x1="870.908" y1="307.966" x2="717.967" y2="236.129" gradientUnits="userSpaceOnUse">
<stop stop-color="#7F270F"/>
<stop offset="1" stop-color="#7F270F" stop-opacity="0"/>
</linearGradient>
<linearGradient id="paint19_linear_465_60" x1="739.205" y1="161.177" x2="771.277" y2="166.615" gradientUnits="userSpaceOnUse">
<stop stop-color="#7F270F"/>
<stop offset="1" stop-color="#7F270F" stop-opacity="0"/>
</linearGradient>
<linearGradient id="paint20_linear_465_60" x1="362.731" y1="499.671" x2="399.012" y2="276.477" gradientUnits="userSpaceOnUse">
<stop stop-color="#7F270F"/>
<stop offset="1" stop-color="#7F270F" stop-opacity="0"/>
</linearGradient>
<linearGradient id="paint21_linear_465_60" x1="503.633" y1="214.82" x2="503.633" y2="307.134" gradientUnits="userSpaceOnUse">
<stop stop-color="#6B7280"/>
<stop offset="1" stop-color="#6B7280" stop-opacity="0"/>
</linearGradient>
<linearGradient id="paint22_linear_465_60" x1="407.658" y1="500.496" x2="380.927" y2="373.82" gradientUnits="userSpaceOnUse">
<stop stop-color="#7F270F"/>
<stop offset="1" stop-color="#7F270F" stop-opacity="0"/>
</linearGradient>
<linearGradient id="paint23_linear_465_60" x1="408.073" y1="318.362" x2="410.154" y2="423.567" gradientUnits="userSpaceOnUse">
<stop stop-color="#C8D8FA"/>
<stop offset="1" stop-color="#C8D8FA" stop-opacity="0"/>
</linearGradient>
<linearGradient id="paint24_linear_465_60" x1="432.172" y1="388.221" x2="433.831" y2="370.379" gradientUnits="userSpaceOnUse">
<stop stop-color="#C8D8FA"/>
<stop offset="1" stop-color="#C8D8FA" stop-opacity="0"/>
</linearGradient>
<linearGradient id="paint25_linear_465_60" x1="424.305" y1="337.469" x2="398.904" y2="351.559" gradientUnits="userSpaceOnUse">
<stop stop-color="#7F270F"/>
<stop offset="1" stop-color="#7F270F" stop-opacity="0"/>
</linearGradient>
<clipPath id="clip0_465_60">
<rect width="1216" height="49.5" fill="white" transform="translate(0 685)"/>
</clipPath>
<clipPath id="clip1_465_60">
<path d="M124.5 40.4C124.5 32.5593 124.5 28.6389 126.026 25.6441C127.368 23.0099 129.51 20.8681 132.144 19.5259C135.139 18 139.059 18 146.9 18H1069.1C1076.94 18 1080.86 18 1083.86 19.5259C1086.49 20.8681 1088.63 23.0099 1089.97 25.6441C1091.5 28.6389 1091.5 32.5593 1091.5 40.4V646H124.5V40.4Z" fill="white"/>
</clipPath>
<clipPath id="clip2_465_60">
<rect width="967" height="628" fill="white" transform="translate(124.5 18)"/>
</clipPath>
<clipPath id="clip3_465_60">
<rect x="124.5" y="18" width="967" height="23" fill="white"/>
</clipPath>
<clipPath id="clip5_465_60">
<rect width="236" height="16" fill="white" transform="translate(132.5 20.75)"/>
</clipPath>
<clipPath id="clip6_465_60">
<rect width="165" height="16" fill="white" transform="translate(919.5 20.75)"/>
</clipPath>
<clipPath id="clip7_465_60">
<rect width="521" height="415" fill="white" transform="translate(347 125)"/>
</clipPath>
</defs>
</svg>
