<svg width="652" height="591" viewBox="0 0 652 591" fill="none" xmlns="http://www.w3.org/2000/svg">
<g clip-path="url(#clip0_452_573)">
<path d="M624.172 480.489H0V0H624.172V480.489Z" fill="white"/>
<path d="M624.172 480.489H0V0H624.172V480.489ZM9.222 471.267H614.95V9.222H9.222V471.267Z" fill="#E5E5E5"/>
<path d="M136.355 362.197H89.0985C87.8189 362.196 86.592 361.687 85.6871 360.782C84.7822 359.877 84.2731 358.651 84.2715 357.371V292.226C84.2731 290.946 84.7822 289.72 85.6871 288.815C86.592 287.91 87.8189 287.401 89.0985 287.4H136.355C137.635 287.401 138.862 287.91 139.767 288.815C140.672 289.72 141.181 290.947 141.182 292.227V357.371C141.181 358.651 140.672 359.878 139.767 360.783C138.862 361.688 137.635 362.197 136.355 362.198V362.197Z" fill="#E6E6E6"/>
<path d="M222.535 362.197H175.278C173.999 362.196 172.772 361.687 171.867 360.782C170.962 359.877 170.453 358.65 170.451 357.371V230.437C170.452 229.157 170.961 227.93 171.866 227.025C172.771 226.12 173.998 225.611 175.278 225.61H222.535C223.815 225.611 225.042 226.12 225.947 227.025C226.851 227.929 227.361 229.156 227.362 230.436V357.37C227.361 358.65 226.852 359.877 225.947 360.782C225.042 361.687 223.815 362.196 222.535 362.197Z" fill="#E6E6E6"/>
<path d="M308.716 362.197H261.458C260.178 362.196 258.951 361.687 258.046 360.782C257.142 359.877 256.632 358.651 256.631 357.371V292.226C256.632 290.946 257.142 289.72 258.046 288.815C258.951 287.91 260.178 287.401 261.458 287.4H308.715C309.995 287.401 311.222 287.91 312.127 288.815C313.032 289.72 313.541 290.947 313.542 292.227V357.371C313.54 358.65 313.031 359.877 312.127 360.782C311.222 361.686 309.995 362.195 308.716 362.197Z" fill="#E6E6E6"/>
<path d="M394.895 362.197H347.638C346.387 362.224 345.177 361.754 344.272 360.89C343.367 360.026 342.842 358.839 342.811 357.589V205.828C342.842 204.577 343.367 203.39 344.272 202.527C345.177 201.663 346.387 201.193 347.638 201.22H394.895C396.145 201.193 397.355 201.663 398.26 202.527C399.165 203.39 399.69 204.577 399.722 205.828V357.589C399.69 358.839 399.165 360.026 398.26 360.89C397.355 361.754 396.145 362.224 394.895 362.197Z" fill="#E6E6E6"/>
<path d="M481.074 362.197H433.817C432.538 362.196 431.311 361.687 430.406 360.782C429.501 359.877 428.992 358.651 428.99 357.371V162.143C428.992 160.863 429.501 159.636 430.406 158.731C431.31 157.826 432.537 157.317 433.817 157.316H481.074C482.354 157.317 483.581 157.826 484.486 158.731C485.391 159.636 485.9 160.862 485.901 162.142V357.37C485.9 358.65 485.391 359.877 484.486 360.782C483.581 361.687 482.354 362.196 481.074 362.197Z" fill="#F2F2F2"/>
<path d="M112.727 267.887C118.115 267.887 122.483 263.519 122.483 258.131C122.483 252.743 118.115 248.375 112.727 248.375C107.339 248.375 102.971 252.743 102.971 258.131C102.971 263.519 107.339 267.887 112.727 267.887Z" fill="#090814"/>
<path d="M198.906 204.471C204.294 204.471 208.662 200.103 208.662 194.715C208.662 189.327 204.294 184.959 198.906 184.959C193.518 184.959 189.15 189.327 189.15 194.715C189.15 200.103 193.518 204.471 198.906 204.471Z" fill="#090814"/>
<path d="M285.086 267.887C290.474 267.887 294.842 263.519 294.842 258.131C294.842 252.743 290.474 248.375 285.086 248.375C279.698 248.375 275.33 252.743 275.33 258.131C275.33 263.519 279.698 267.887 285.086 267.887Z" fill="#090814"/>
<path d="M371.266 173.576C376.654 173.576 381.022 169.208 381.022 163.82C381.022 158.432 376.654 154.064 371.266 154.064C365.878 154.064 361.51 158.432 361.51 163.82C361.51 169.208 365.878 173.576 371.266 173.576Z" fill="#090814"/>
<path d="M457.445 137.803C462.834 137.803 467.201 133.435 467.201 128.047C467.201 122.659 462.834 118.291 457.445 118.291C452.057 118.291 447.689 122.659 447.689 128.047C447.689 133.435 452.057 137.803 457.445 137.803Z" fill="#090814"/>
<path d="M285.292 260.316L198.906 195.616L113.706 259.435L111.756 256.835L198.91 191.555L284.884 255.955L370.319 162.461L370.662 162.322L456.841 127.599L458.057 130.616L372.216 165.19L285.292 260.316Z" fill="#090814"/>
<path d="M577.999 574.714H563.316L556.332 518.094H577.999V574.714Z" fill="#FDBA8C"/>
<path d="M525.535 335.064L533.869 462.981L561.85 553.021L589.83 554.496L572.645 444.796L577.418 371.921C577.418 371.921 600.045 355.672 587.534 336.113L525.535 335.064Z" fill="#090814"/>
<path d="M587.576 574.714H572.901L565.918 518.094H587.583L587.576 574.714Z" fill="#FDBA8C"/>
<path d="M581.54 589.449H540.972C537.484 589.442 534.042 588.657 530.897 587.149L523.414 583.549C522.589 583.154 521.906 582.516 521.454 581.721C521.002 580.926 520.804 580.012 520.885 579.101C520.967 578.191 521.324 577.327 521.91 576.625C522.496 575.923 523.282 575.416 524.164 575.173L539.595 570.9L565.985 557.026L566.004 557.126C566.498 559.626 567.267 563.403 567.362 563.626C570.068 566.731 572.851 568.156 575.624 567.871C580.467 567.377 583.686 561.784 583.724 561.727L583.753 561.68H583.801C584.294 561.703 584.776 561.838 585.209 562.075C585.642 562.312 586.015 562.644 586.301 563.047C587.401 564.709 586.728 567.282 586.624 567.662C587.944 568.954 588.542 576.19 588.59 576.769C590.508 578.801 591.41 580.748 591.296 582.562C591.193 583.437 590.906 584.28 590.455 585.036C590.003 585.792 589.396 586.444 588.675 586.949C586.651 588.559 584.139 589.43 581.553 589.418L581.54 589.449Z" fill="#090814" stroke="#06060F" stroke-width="1.5" stroke-miterlimit="10"/>
<path d="M621.791 149.701C621.789 144.696 620.401 139.79 617.779 135.527C615.158 131.263 611.406 127.81 606.941 125.55C602.476 123.29 597.471 122.311 592.484 122.723C587.496 123.135 582.72 124.922 578.686 127.884C574.652 130.846 571.518 134.868 569.632 139.504C567.745 144.14 567.181 149.207 568 154.144C568.82 159.082 570.992 163.695 574.275 167.472C577.558 171.25 581.824 174.043 586.599 175.543L591.837 210.143L618.526 187.901C614.886 183.114 611.906 177.859 609.666 172.278C613.397 169.811 616.457 166.458 618.574 162.518C620.69 158.577 621.795 154.174 621.791 149.701Z" fill="#FDBA8C"/>
<path d="M535.113 335.064L543.447 462.981L571.303 553.657L593.103 554.533L582.22 444.799L586.993 371.924C586.993 371.924 609.62 355.675 597.109 336.116L535.113 335.064Z" fill="#090814"/>
<path d="M580.29 355.626C555.29 355.626 525.87 340.349 524.165 339.452L523.691 339.202L581.064 192.836L609.478 179.412C611.666 178.38 614.09 177.95 616.5 178.167C618.909 178.383 621.218 179.239 623.186 180.645C625.155 182.051 626.713 183.957 627.699 186.166C628.686 188.375 629.065 190.807 628.798 193.212L617.522 294.366L605.752 346.757L605.627 346.88C599.129 353.298 590.046 355.626 580.29 355.626Z" fill="#DADADA"/>
<path d="M488.612 258.734C490.098 257.791 491.774 257.186 493.519 256.961C495.265 256.736 497.039 256.896 498.716 257.43C500.394 257.965 501.933 258.861 503.227 260.055C504.52 261.249 505.536 262.712 506.203 264.341L548.931 262.007L537.721 281.207L498.868 280.479C496.057 281.417 493 281.292 490.276 280.127C487.551 278.962 485.349 276.838 484.085 274.158C482.822 271.478 482.585 268.427 483.42 265.584C484.255 262.741 486.104 260.303 488.616 258.732L488.612 258.734Z" fill="#FDBA8C"/>
<path d="M572.924 288.792L530.109 287.699L530.661 259.378L550.907 252.934L584.116 206.357C585.78 204.027 587.894 202.054 590.333 200.555C592.772 199.056 595.486 198.061 598.317 197.628C601.147 197.196 604.035 197.335 606.81 198.037C609.586 198.74 612.192 199.992 614.476 201.718C616.759 203.445 618.673 205.612 620.105 208.091C621.537 210.57 622.458 213.311 622.813 216.152C623.167 218.993 622.949 221.876 622.171 224.631C621.393 227.387 620.07 229.958 618.281 232.193L572.924 288.792Z" fill="#DADADA"/>
<path d="M561.721 121.863C564.592 118.919 568.323 116.962 572.377 116.271C576.328 115.421 580.663 115.157 583.824 112.679C587.416 109.817 588.997 104.379 593.403 103.172C595.319 102.787 597.306 102.945 599.138 103.627C606.178 105.751 612.429 109.919 617.098 115.601C618.198 117.229 619.6 118.632 621.229 119.732C622.202 120.144 623.154 120.608 624.079 121.121C625.093 121.922 625.892 122.963 626.402 124.15C629.579 130.563 630.311 137.914 628.462 144.828C627.362 148.911 625.373 152.695 624.199 156.802C623.025 160.909 617.599 168.722 616.33 166.782C615.061 164.842 613.43 163.034 612.738 160.795C611.383 156.395 612.607 151.959 609.161 148.895C607.03 147.003 603.174 145.734 601.725 148.177C601.15 149.123 601.186 150.32 600.695 151.302C599.725 153.218 596.923 153.602 595.067 152.502C593.278 151.267 592.021 149.403 591.547 147.282C588.757 137.847 584.004 131.908 573.91 135.943C570.15 137.452 565.72 138.469 562.104 135.883C557.339 132.483 558.309 125.742 561.721 121.863Z" fill="#090814"/>
<path d="M497.838 377.762H450.581C449.301 377.76 448.074 377.252 447.17 376.347C446.265 375.442 445.755 374.215 445.754 372.936V177.709C445.755 176.429 446.265 175.202 447.17 174.298C448.074 173.393 449.301 172.884 450.581 172.883H497.838C499.118 172.884 500.345 173.393 501.25 174.298C502.155 175.203 502.664 176.43 502.665 177.71V372.936C502.663 374.215 502.154 375.442 501.249 376.347C500.344 377.252 499.118 377.76 497.838 377.762Z" fill="#DADADA"/>
<path d="M487.415 275.497C488.901 274.554 490.576 273.949 492.322 273.723C494.068 273.498 495.842 273.659 497.519 274.193C499.196 274.728 500.736 275.624 502.029 276.818C503.323 278.012 504.339 279.475 505.006 281.104L547.73 278.77L536.52 297.97L497.667 297.242C494.856 298.18 491.799 298.054 489.075 296.889C486.35 295.724 484.148 293.601 482.884 290.921C481.621 288.24 481.384 285.19 482.219 282.347C483.054 279.504 484.903 277.066 487.415 275.495V275.497Z" fill="#FDBA8C"/>
<path d="M571.729 305.557L528.914 304.464L529.466 276.143L549.712 269.699L582.921 223.121C584.581 220.783 586.694 218.802 589.135 217.296C591.575 215.789 594.292 214.788 597.127 214.351C599.961 213.915 602.854 214.051 605.634 214.754C608.414 215.456 611.026 216.709 613.313 218.438C615.6 220.168 617.517 222.34 618.949 224.824C620.382 227.308 621.301 230.054 621.652 232.9C622.004 235.746 621.78 238.634 620.995 241.392C620.21 244.15 618.88 246.722 617.082 248.957L571.729 305.557Z" fill="#DADADA"/>
<path d="M651.375 590.646H467.683C467.417 590.646 467.201 590.11 467.201 589.446C467.201 588.782 467.417 588.246 467.683 588.246H651.375C651.641 588.246 651.857 588.782 651.857 589.446C651.857 590.11 651.639 590.646 651.375 590.646Z" fill="#CACACA"/>
</g>
<defs>
<clipPath id="clip0_452_573">
<rect width="651.858" height="590.646" fill="white"/>
</clipPath>
</defs>
</svg>
