<svg width="949" height="569" viewBox="0 0 949 569" fill="none" xmlns="http://www.w3.org/2000/svg">
<g clip-path="url(#clip0_234_307)">
<path d="M368.454 509.5C363.348 511.295 357.865 511.745 352.535 510.806C347.204 509.867 342.205 507.571 338.02 504.139C327.36 495.192 324.018 480.451 321.298 466.803L313.255 426.433L330.095 438.028C342.205 446.367 354.588 454.972 362.973 467.05C371.358 479.129 375.018 495.616 368.281 508.685" fill="#1A2A30"/>
<path d="M367.015 558.377C368.719 545.962 370.472 533.387 369.276 520.839C368.215 509.695 364.815 498.81 357.893 489.886C354.219 485.157 349.748 481.106 344.682 477.914C343.361 477.08 342.145 479.174 343.46 480.004C352.227 485.544 359.007 493.725 362.824 503.367C367.039 514.089 367.716 525.778 366.99 537.168C366.55 544.056 365.619 550.899 364.681 557.733C364.607 558.042 364.653 558.368 364.81 558.644C364.967 558.921 365.223 559.127 365.526 559.222C365.836 559.305 366.166 559.263 366.444 559.105C366.723 558.947 366.928 558.685 367.015 558.377Z" fill="#001219"/>
<path d="M350.598 536.408C348.408 539.736 345.398 542.445 341.857 544.272C338.317 546.1 334.365 546.984 330.384 546.841C320.15 546.356 311.619 539.213 303.94 532.433L281.225 512.377L296.258 511.658C307.069 511.14 318.159 510.658 328.457 513.992C338.754 517.326 348.251 525.35 350.134 536.008" fill="#1A2A30"/>
<path d="M371.831 565.513C363.628 550.998 354.112 534.865 337.11 529.709C332.382 528.28 327.425 527.768 322.505 528.201C320.955 528.334 321.342 530.725 322.889 530.591C331.136 529.906 339.367 532.084 346.196 536.757C352.767 541.23 357.884 547.449 362.215 554.044C364.868 558.083 367.244 562.294 369.62 566.499C370.38 567.843 372.6 566.873 371.831 565.513Z" fill="#001219"/>
<path d="M591.713 274.724L412.86 422.958C410.61 424.819 407.713 425.711 404.806 425.439C401.898 425.167 399.218 423.753 397.352 421.506L321.957 330.538C320.096 328.288 319.204 325.391 319.476 322.483C319.748 319.576 321.162 316.895 323.408 315.029L502.262 166.795C504.512 164.934 507.409 164.042 510.316 164.314C513.224 164.586 515.904 166.001 517.77 168.247L593.165 259.215C595.026 261.466 595.918 264.362 595.646 267.27C595.374 270.177 593.96 272.858 591.713 274.724Z" fill="#001219"/>
<path d="M584.546 270.26L409.804 415.087C408.645 416.045 407.152 416.505 405.655 416.365C404.157 416.225 402.776 415.496 401.815 414.339L329.827 327.482C328.869 326.323 328.409 324.83 328.549 323.333C328.689 321.835 329.418 320.454 330.575 319.493L505.317 174.666C506.476 173.707 507.968 173.248 509.466 173.388C510.964 173.528 512.345 174.257 513.306 175.414L585.293 262.271C586.252 263.43 586.712 264.922 586.571 266.42C586.431 267.918 585.703 269.299 584.546 270.26Z" fill="white"/>
<path d="M592.601 300.577L556.661 297.212L582.384 276.967L596.241 293.687C596.782 294.325 597.117 295.111 597.203 295.943C597.289 296.774 597.122 297.613 596.723 298.348C596.462 298.847 596.105 299.289 595.672 299.65C595.247 300 594.757 300.262 594.229 300.421C593.702 300.58 593.149 300.633 592.601 300.577Z" fill="#1A2A30"/>
<path d="M520.428 236.202L432.029 309.467C431.489 309.915 430.866 310.251 430.196 310.458C429.526 310.665 428.822 310.738 428.124 310.672C427.425 310.607 426.747 310.405 426.127 310.077C425.507 309.75 424.957 309.303 424.51 308.763C424.062 308.223 423.726 307.6 423.519 306.93C423.312 306.26 423.239 305.556 423.304 304.858C423.37 304.159 423.572 303.481 423.9 302.861C424.227 302.241 424.674 301.691 425.214 301.244L513.612 227.979C514.152 227.531 514.775 227.194 515.445 226.988C516.115 226.781 516.82 226.708 517.518 226.773C518.216 226.839 518.895 227.041 519.515 227.368C520.135 227.696 520.684 228.143 521.132 228.682C521.579 229.222 521.916 229.845 522.123 230.515C522.33 231.185 522.402 231.89 522.337 232.588C522.272 233.286 522.069 233.965 521.742 234.585C521.414 235.205 520.968 235.754 520.428 236.202Z" fill="#1A2A30"/>
<path d="M477.163 242.581L417.546 291.993C416.455 292.896 415.05 293.33 413.64 293.198C412.23 293.066 410.93 292.379 410.026 291.289C409.123 290.198 408.689 288.793 408.821 287.383C408.953 285.973 409.64 284.673 410.73 283.769L470.348 234.358C471.439 233.454 472.843 233.021 474.253 233.153C475.664 233.285 476.964 233.971 477.867 235.062C478.771 236.152 479.205 237.557 479.073 238.967C478.941 240.377 478.254 241.677 477.163 242.581Z" fill="#CCCCCC"/>
<path d="M384.787 343.635C394.003 343.635 401.475 336.163 401.475 326.947C401.475 317.73 394.003 310.259 384.787 310.259C375.57 310.259 368.099 317.73 368.099 326.947C368.099 336.163 375.57 343.635 384.787 343.635Z" fill="#001219"/>
<path d="M517.533 293.496C520.482 293.496 522.873 291.105 522.873 288.156C522.873 285.206 520.482 282.815 517.533 282.815C514.583 282.815 512.192 285.206 512.192 288.156C512.192 291.105 514.583 293.496 517.533 293.496Z" fill="#1A2A30"/>
<path d="M531.923 281.569C534.873 281.569 537.263 279.178 537.263 276.229C537.263 273.28 534.873 270.889 531.923 270.889C528.974 270.889 526.583 273.28 526.583 276.229C526.583 279.178 528.974 281.569 531.923 281.569Z" fill="#1A2A30"/>
<path d="M546.314 269.642C549.263 269.642 551.654 267.251 551.654 264.302C551.654 261.353 549.263 258.962 546.314 258.962C543.364 258.962 540.974 261.353 540.974 264.302C540.974 267.251 543.364 269.642 546.314 269.642Z" fill="#1A2A30"/>
<path d="M461.198 556.214L473.458 556.213L479.29 508.925L461.196 508.926L461.198 556.214Z" fill="#FFB8B8"/>
<path d="M458.071 552.211L482.215 552.21H482.216C484.237 552.21 486.237 552.608 488.104 553.382C489.971 554.155 491.667 555.288 493.096 556.717C494.525 558.146 495.658 559.842 496.431 561.709C497.205 563.575 497.603 565.576 497.603 567.597V568.097L458.072 568.098L458.071 552.211Z" fill="#2F2E41"/>
<path d="M417.198 556.214L429.458 556.213L435.29 508.925L417.196 508.926L417.198 556.214Z" fill="#FFB8B8"/>
<path d="M414.071 552.211L438.215 552.21H438.216C440.237 552.21 442.237 552.608 444.104 553.382C445.971 554.155 447.667 555.288 449.096 556.717C450.525 558.146 451.658 559.842 452.431 561.709C453.205 563.575 453.603 565.576 453.603 567.597V568.097L414.072 568.098L414.071 552.211Z" fill="#2F2E41"/>
<path d="M429.501 541.745H429.499L419.073 541.742C417.907 541.746 416.785 541.295 415.945 540.485C415.106 539.675 414.616 538.57 414.578 537.404L414.25 528.283C411.614 455.343 408.889 379.919 425.767 346.019L425.9 345.752L481.78 343.729L492.998 446.641C493.477 451.03 493.302 455.467 492.478 459.805L477.648 537.953C477.447 539.013 476.873 539.965 476.029 540.636C475.185 541.308 474.128 541.654 473.051 541.611L461.34 541.231C460.727 541.207 460.125 541.058 459.572 540.792C459.019 540.527 458.525 540.151 458.122 539.688C457.719 539.225 457.415 538.685 457.229 538.1C457.043 537.515 456.978 536.899 457.039 536.288L466.238 464.009C466.551 460.889 466.268 457.738 465.403 454.725L453.962 414.73C453.868 414.4 453.662 414.112 453.381 413.914C453.099 413.717 452.758 413.622 452.415 413.647C452.072 413.671 451.747 413.812 451.496 414.047C451.245 414.282 451.082 414.596 451.034 414.937L433.957 537.864C433.804 538.938 433.27 539.922 432.452 540.634C431.633 541.347 430.586 541.741 429.501 541.745Z" fill="#2F2E41"/>
<path d="M436.183 240.842C449.748 240.842 460.744 229.845 460.744 216.281C460.744 202.716 449.748 191.72 436.183 191.72C422.618 191.72 411.622 202.716 411.622 216.281C411.622 229.845 422.618 240.842 436.183 240.842Z" fill="#FFB8B8"/>
<path d="M479.16 351.326H428.337C427.691 351.326 427.053 351.187 426.465 350.918C425.878 350.65 425.355 350.258 424.933 349.769C424.51 349.281 424.198 348.707 424.017 348.087C423.836 347.467 423.791 346.815 423.884 346.176L426.395 328.979L411.651 288.426C410.129 284.239 409.563 279.765 409.995 275.331C410.428 270.898 411.847 266.617 414.15 262.803C416.452 258.99 419.579 255.74 423.301 253.293C427.023 250.845 431.246 249.262 435.66 248.659C441.948 247.782 448.352 248.941 453.934 251.967C459.516 254.993 463.983 259.726 466.68 265.474L469.919 272.365L483.585 346.006C483.705 346.655 483.681 347.323 483.514 347.962C483.348 348.601 483.042 349.196 482.62 349.704C482.198 350.211 481.669 350.62 481.071 350.9C480.473 351.181 479.82 351.326 479.16 351.326Z" fill="#001219"/>
<path d="M371.874 394.462C373.404 394.107 374.837 393.421 376.073 392.452C377.309 391.482 378.317 390.254 379.027 388.853C379.736 387.452 380.13 385.913 380.181 384.343C380.231 382.773 379.937 381.212 379.318 379.768L418.921 290.296L396.266 284.59L364.462 374.332C362.106 375.532 360.271 377.554 359.306 380.016C358.341 382.478 358.313 385.208 359.227 387.689C360.14 390.171 361.932 392.231 364.263 393.479C366.594 394.727 369.302 395.077 371.874 394.462Z" fill="#FFB8B8"/>
<path d="M413.56 306.297L391.527 295.984C390.9 295.69 390.343 295.265 389.896 294.737C389.448 294.209 389.119 293.591 388.932 292.925C388.744 292.259 388.703 291.56 388.81 290.876C388.917 290.192 389.17 289.539 389.552 288.962L402.943 268.739C404.464 265.543 407.19 263.079 410.524 261.888C413.858 260.698 417.528 260.877 420.73 262.387C423.932 263.897 426.404 266.615 427.606 269.945C428.808 273.275 428.64 276.946 427.141 280.153L420.217 303.316C420.018 303.979 419.679 304.591 419.223 305.112C418.766 305.632 418.203 306.048 417.571 306.331C416.939 306.614 416.254 306.757 415.562 306.751C414.87 306.746 414.187 306.591 413.56 306.297Z" fill="#001219"/>
<path d="M537.075 164.224C537.553 165.72 537.697 167.302 537.498 168.86C537.298 170.418 536.76 171.913 535.92 173.24C535.08 174.567 533.959 175.694 532.637 176.541C531.315 177.388 529.822 177.935 528.266 178.143L471.697 257.978L455.194 241.441L515.989 168.166C515.813 165.528 516.61 162.917 518.231 160.827C519.851 158.738 522.181 157.315 524.781 156.83C527.38 156.344 530.067 156.828 532.333 158.191C534.599 159.554 536.286 161.7 537.075 164.224Z" fill="#FFB8B8"/>
<path d="M484.779 248.607C484.86 249.294 484.791 249.991 484.578 250.65C484.365 251.308 484.012 251.913 483.544 252.423L467.195 270.232C465.209 273.165 462.142 275.19 458.665 275.865C455.188 276.539 451.586 275.807 448.648 273.83C445.71 271.852 443.676 268.79 442.992 265.316C442.308 261.841 443.03 258.236 445 255.293L455.512 233.435C455.812 232.812 456.243 232.26 456.776 231.818C457.308 231.375 457.93 231.053 458.598 230.873C459.266 230.693 459.966 230.658 460.648 230.773C461.331 230.887 461.981 231.147 462.554 231.535L482.696 245.179C483.27 245.567 483.752 246.074 484.112 246.665C484.471 247.257 484.699 247.919 484.779 248.607Z" fill="#001219"/>
<path d="M468.455 206C468.44 203.777 468.131 201.566 467.537 199.424C463.58 184.802 448.971 176.025 434.312 178.228C431.461 177.41 428.509 176.997 425.543 177C417.998 177 410.701 179.698 404.971 184.607C399.241 189.515 395.455 196.311 394.297 203.767L382.455 280H446.455L456.789 213.475C457.173 211.002 457.263 208.493 457.058 206H468.455Z" fill="#2F2E41"/>
<path d="M548 568.653H337C336.735 568.653 336.48 568.547 336.293 568.36C336.105 568.172 336 567.918 336 567.653C336 567.388 336.105 567.133 336.293 566.946C336.48 566.758 336.735 566.653 337 566.653H548C548.265 566.653 548.52 566.758 548.707 566.946C548.895 567.133 549 567.388 549 567.653C549 567.918 548.895 568.172 548.707 568.36C548.52 568.547 548.265 568.653 548 568.653Z" fill="#001219"/>
<path d="M760.57 77.6673C762.034 77.5265 763.51 77.7083 764.896 78.1998C766.281 78.6913 767.542 79.4806 768.589 80.5121C769.637 81.5436 770.445 82.7923 770.958 84.17C771.471 85.5478 771.675 87.0213 771.557 88.4866L804.264 102.882L788.662 112.952L759.995 97.7387C757.546 97.3767 755.316 96.1291 753.726 94.2324C752.136 92.3356 751.296 89.9215 751.367 87.4474C751.438 84.9733 752.414 82.6113 754.111 80.8087C755.807 79.0062 758.105 77.8885 760.57 77.6673Z" fill="#A0616A"/>
<path d="M892.501 59.7104C906.066 59.7104 917.062 48.7141 917.062 35.1494C917.062 21.5847 906.066 10.5884 892.501 10.5884C878.937 10.5884 867.94 21.5847 867.94 35.1494C867.94 48.7141 878.937 59.7104 892.501 59.7104Z" fill="#A0616A"/>
<path d="M848.05 385.364L835.79 385.363L829.958 338.075L848.052 338.076L848.05 385.364Z" fill="#A0616A"/>
<path d="M851.176 397.248L811.646 397.246V396.746C811.645 394.726 812.043 392.725 812.817 390.858C813.59 388.991 814.723 387.295 816.152 385.866C817.581 384.438 819.277 383.304 821.144 382.531C823.011 381.758 825.011 381.36 827.032 381.36L851.177 381.361L851.176 397.248Z" fill="#2F2E41"/>
<path d="M899.05 385.364L886.79 385.363L880.958 338.075L899.052 338.076L899.05 385.364Z" fill="#A0616A"/>
<path d="M902.176 397.248L862.646 397.246V396.746C862.645 394.726 863.043 392.725 863.817 390.858C864.59 388.991 865.723 387.295 867.152 385.866C868.581 384.438 870.277 383.304 872.144 382.531C874.011 381.758 876.011 381.36 878.032 381.36L902.177 381.361L902.176 397.248Z" fill="#2F2E41"/>
<path d="M898.468 375.292C898.285 375.292 898.102 375.28 897.92 375.258L879.974 373.049C878.923 372.921 877.95 372.426 877.229 371.651C876.507 370.876 876.082 369.871 876.029 368.813L870.8 251.05C870.782 250.716 870.653 250.397 870.433 250.145C870.214 249.892 869.916 249.721 869.587 249.657C869.259 249.593 868.919 249.641 868.621 249.793C868.323 249.945 868.084 250.193 867.942 250.496L854.508 295.28L851.742 367.217C851.718 367.837 851.566 368.446 851.296 369.005C851.025 369.563 850.642 370.06 850.17 370.463C849.698 370.867 849.148 371.168 848.554 371.349C847.96 371.529 847.335 371.585 846.719 371.512L831.178 369.683C830.067 369.555 829.044 369.017 828.309 368.174C827.574 367.331 827.18 366.244 827.205 365.126L828.525 297.412L839.053 191.12L839.524 191.138L903.546 193.605L902.969 370.807C902.965 371.998 902.489 373.138 901.645 373.979C900.802 374.82 899.659 375.292 898.468 375.292Z" fill="#2F2E41"/>
<path d="M901.12 203.318C901.081 203.318 901.042 203.318 901.003 203.317L836.524 201.628C835.892 201.611 835.27 201.462 834.7 201.189C834.13 200.916 833.623 200.526 833.214 200.045C832.804 199.563 832.501 199.001 832.323 198.394C832.145 197.787 832.097 197.15 832.183 196.523L844.573 105.332C845.346 99.1745 847.41 93.2495 850.629 87.9437C853.848 82.6379 858.149 78.0706 863.253 74.5399C867.742 71.4494 872.841 69.3555 878.207 68.3988C883.572 67.442 889.08 67.6447 894.361 68.993C916.867 74.6962 930.369 98.8632 924.458 122.865L905.49 199.894C905.245 200.869 904.683 201.735 903.892 202.355C903.1 202.975 902.125 203.314 901.12 203.318Z" fill="#001219"/>
<path d="M816.53 130.904C812.281 130.909 808.123 129.674 804.566 127.349L766.963 102.68C766.413 102.319 765.948 101.841 765.603 101.281C765.257 100.721 765.038 100.092 764.962 99.438C764.886 98.7842 764.954 98.1216 765.162 97.497C765.37 96.8724 765.712 96.301 766.165 95.8231L771.829 89.8426C772.447 89.1871 773.248 88.7327 774.127 88.5389C775.007 88.345 775.925 88.4206 776.761 88.7557L818.762 105.481L857.671 77.6952C859.49 76.396 861.56 75.4886 863.748 75.0304C865.936 74.5722 868.196 74.5732 870.383 75.0333C872.571 75.4934 874.64 76.4025 876.458 77.7032C878.276 79.004 879.805 80.6679 880.947 82.5898C882.089 84.5118 882.819 86.6498 883.092 88.8687C883.366 91.0876 883.175 93.339 882.533 95.4805C881.891 97.622 880.812 99.6069 879.363 101.31C877.915 103.012 876.128 104.396 874.117 105.373L826.029 128.73C823.068 130.164 819.82 130.908 816.53 130.904Z" fill="#001219"/>
<path d="M901.012 58.6378C905.203 59.6272 910.258 60.3864 913.252 57.2929C913.783 56.7089 914.257 56.0761 914.668 55.4028L918.583 49.4254C921.583 44.8465 924.634 40.1481 925.904 34.8236C926.633 31.7641 926.747 28.5901 926.24 25.486C925.732 22.382 924.613 19.4097 922.947 16.742C921.281 14.0742 919.101 11.764 916.535 9.94574C913.968 8.12743 911.066 6.83719 907.997 6.14999C902.151 4.84117 896.431 2.58922 890.455 3C884.478 3.41078 877.47 3.27592 872.455 0C872.768 1.46046 874.457 7.91341 874.457 7.91341C874.457 7.91341 866.916 14.8321 865.403 16.5572C867.383 15.6796 869.538 15.2675 871.702 15.3526C873.866 15.4378 875.981 16.0179 877.886 17.0485C879.791 18.079 881.434 19.5325 882.689 21.2973C883.944 23.062 884.778 25.0911 885.126 27.2285C885.554 29.8543 885.303 32.7665 886.863 34.9216C888.347 36.9714 891.008 37.6896 893.245 38.8732C896.469 40.71 898.931 43.6386 900.186 47.1307C901.442 50.6227 901.408 54.4485 900.092 57.9179L901.012 58.6378Z" fill="#2F2E41"/>
<path d="M871.523 212.115H667.933C665.374 212.112 662.92 211.094 661.111 209.285C659.301 207.475 658.283 205.021 658.28 202.462V98.9123C658.283 96.353 659.301 93.8994 661.111 92.0898C662.92 90.2801 665.374 89.2622 667.933 89.2593H871.523C874.082 89.2622 876.536 90.2801 878.345 92.0898C880.155 93.8994 881.173 96.353 881.176 98.9123V202.462C881.173 205.021 880.155 207.475 878.345 209.285C876.536 211.094 874.082 212.112 871.523 212.115Z" fill="#001219"/>
<path d="M869.183 205.094H670.274C668.955 205.093 667.691 204.569 666.759 203.636C665.827 202.704 665.302 201.44 665.301 200.122V101.252C665.302 99.9336 665.827 98.6696 666.759 97.7374C667.691 96.8051 668.955 96.2808 670.274 96.2793H869.183C870.501 96.2808 871.765 96.8051 872.697 97.7374C873.63 98.6696 874.154 99.9336 874.156 101.252V200.122C874.154 201.44 873.63 202.704 872.697 203.636C871.765 204.569 870.501 205.093 869.183 205.094Z" fill="white"/>
<path d="M857.663 230.057L835.293 207.687L863.973 208.412V227.443C863.981 228.176 863.767 228.894 863.36 229.503C862.953 230.113 862.371 230.585 861.691 230.858C861.236 231.049 860.747 231.147 860.253 231.149C859.771 231.147 859.294 231.05 858.849 230.862C858.404 230.675 858.001 230.401 857.663 230.057Z" fill="#001219"/>
<path opacity="0.9" d="M844.965 146.253H744.34C743.099 146.253 741.909 145.76 741.031 144.882C740.153 144.004 739.66 142.814 739.66 141.573C739.66 140.332 740.153 139.141 741.031 138.263C741.909 137.386 743.099 136.893 744.34 136.893H844.965C846.206 136.893 847.397 137.386 848.274 138.263C849.152 139.141 849.645 140.332 849.645 141.573C849.645 142.814 849.152 144.004 848.274 144.882C847.397 145.76 846.206 146.253 844.965 146.253Z" fill="#001219"/>
<path opacity="0.9" d="M812.203 126.362H744.339C743.724 126.363 743.115 126.243 742.546 126.008C741.978 125.773 741.461 125.429 741.026 124.994C740.59 124.559 740.245 124.043 740.009 123.475C739.774 122.907 739.652 122.297 739.652 121.682C739.652 121.067 739.774 120.458 740.009 119.89C740.245 119.321 740.59 118.805 741.026 118.37C741.461 117.936 741.978 117.591 742.546 117.356C743.115 117.121 743.724 117.001 744.339 117.002H812.203C813.444 117.002 814.634 117.495 815.512 118.373C816.39 119.25 816.883 120.441 816.883 121.682C816.883 122.923 816.39 124.114 815.512 124.992C814.634 125.869 813.444 126.362 812.203 126.362Z" fill="#001219"/>
<path d="M702.685 146.253C710.763 146.253 717.311 139.705 717.311 131.628C717.311 123.55 710.763 117.002 702.685 117.002C694.608 117.002 688.06 123.55 688.06 131.628C688.06 139.705 694.608 146.253 702.685 146.253Z" fill="#001219"/>
<path opacity="0.9" d="M813.955 184.372C816.539 184.372 818.635 182.277 818.635 179.692C818.635 177.107 816.539 175.012 813.955 175.012C811.37 175.012 809.274 177.107 809.274 179.692C809.274 182.277 811.37 184.372 813.955 184.372Z" fill="#001219"/>
<path opacity="0.9" d="M830.336 184.372C832.92 184.372 835.016 182.277 835.016 179.692C835.016 177.107 832.92 175.012 830.336 175.012C827.751 175.012 825.655 177.107 825.655 179.692C825.655 182.277 827.751 184.372 830.336 184.372Z" fill="#001219"/>
<path opacity="0.9" d="M846.716 184.372C849.301 184.372 851.397 182.277 851.397 179.692C851.397 177.107 849.301 175.012 846.716 175.012C844.132 175.012 842.036 177.107 842.036 179.692C842.036 182.277 844.132 184.372 846.716 184.372Z" fill="#001219"/>
<path d="M868.371 199.801C868.532 198.339 869.012 196.931 869.777 195.676C870.541 194.42 871.572 193.348 872.796 192.533C874.02 191.719 875.408 191.183 876.861 190.963C878.315 190.744 879.799 190.845 881.209 191.261L901.992 162.191L908.658 179.524L887.899 204.471C887.044 206.794 885.366 208.722 883.184 209.89C881.002 211.059 878.468 211.386 876.06 210.81C873.653 210.234 871.541 208.796 870.123 206.766C868.706 204.737 868.083 202.259 868.371 199.801Z" fill="#A0616A"/>
<path d="M892.177 198.232C891.851 198.259 891.522 198.251 891.196 198.207C890.544 198.12 889.918 197.89 889.364 197.534C888.811 197.178 888.342 196.705 887.991 196.147L883.599 189.179C883.116 188.418 882.874 187.53 882.904 186.629C882.934 185.728 883.235 184.858 883.767 184.131L910.369 147.577L893.079 103.001C891.534 99.0794 891.592 94.7075 893.241 90.8281C894.89 86.9486 897.997 83.8723 901.892 82.262C904.093 81.3389 906.472 80.9149 908.856 81.0208C911.241 81.1266 913.572 81.7596 915.683 82.8741C917.794 83.9887 919.631 85.5571 921.063 87.4666C922.495 89.3762 923.487 91.5793 923.965 93.9177L934.693 146.291C935.439 149.985 935.219 153.808 934.054 157.392C932.889 160.975 930.818 164.197 928.043 166.746L894.833 197.071C894.1 197.741 893.167 198.149 892.177 198.232Z" fill="#001219"/>
<path d="M948 399.653H737C736.735 399.653 736.48 399.547 736.293 399.36C736.105 399.172 736 398.918 736 398.653C736 398.388 736.105 398.133 736.293 397.946C736.48 397.758 736.735 397.653 737 397.653H948C948.265 397.653 948.52 397.758 948.707 397.946C948.895 398.133 949 398.388 949 398.653C949 398.918 948.895 399.172 948.707 399.36C948.52 399.547 948.265 399.653 948 399.653Z" fill="#001219"/>
<path d="M256.617 150.776H53.028C50.4687 150.773 48.0151 149.755 46.2055 147.946C44.3958 146.136 43.3779 143.682 43.375 141.123V37.5734C43.3779 35.0142 44.3958 32.5606 46.2055 30.7509C48.0151 28.9412 50.4687 27.9233 53.028 27.9204H256.617C259.177 27.9233 261.63 28.9412 263.44 30.7509C265.25 32.5606 266.268 35.0142 266.27 37.5734V141.123C266.268 143.682 265.25 146.136 263.44 147.946C261.63 149.755 259.177 150.773 256.617 150.776Z" fill="#001219"/>
<path d="M254.277 143.756H55.3682C54.0498 143.755 52.7859 143.23 51.8536 142.298C50.9214 141.366 50.397 140.102 50.3955 138.783V39.9137C50.397 38.5953 50.9214 37.3313 51.8536 36.399C52.7859 35.4668 54.0498 34.9424 55.3682 34.9409H254.277C255.596 34.9424 256.86 35.4668 257.792 36.399C258.724 37.3313 259.249 38.5953 259.25 39.9137V138.783C259.249 140.102 258.724 141.366 257.792 142.298C256.86 143.23 255.596 143.755 254.277 143.756Z" fill="white"/>
<path d="M242.758 168.718L220.388 146.348L249.068 147.073V166.105C249.075 166.838 248.862 167.556 248.455 168.165C248.048 168.774 247.466 169.246 246.786 169.52C246.331 169.71 245.842 169.809 245.348 169.81C244.866 169.809 244.388 169.711 243.944 169.524C243.499 169.337 243.096 169.063 242.758 168.718Z" fill="#001219"/>
<path d="M230.059 84.9146H129.434C128.193 84.9146 127.002 84.4216 126.125 83.5438C125.247 82.6661 124.754 81.4757 124.754 80.2344C124.754 78.9931 125.247 77.8027 126.125 76.925C127.002 76.0473 128.193 75.5542 129.434 75.5542H230.059C231.3 75.5542 232.491 76.0473 233.368 76.925C234.246 77.8027 234.739 78.9931 234.739 80.2344C234.739 81.4757 234.246 82.6661 233.368 83.5438C232.491 84.4216 231.3 84.9146 230.059 84.9146Z" fill="#CCCCCC"/>
<path d="M197.297 65.0235H129.434C128.193 65.0235 127.002 64.5304 126.125 63.6527C125.247 62.775 124.754 61.5846 124.754 60.3433C124.754 59.102 125.247 57.9116 126.125 57.0339C127.002 56.1562 128.193 55.6631 129.434 55.6631H197.297C198.539 55.6631 199.729 56.1562 200.607 57.0339C201.484 57.9116 201.978 59.102 201.978 60.3433C201.978 61.5846 201.484 62.775 200.607 63.6527C199.729 64.5304 198.539 65.0235 197.297 65.0235Z" fill="#1A2A30"/>
<path d="M87.78 84.9144C95.8575 84.9144 102.406 78.3663 102.406 70.2888C102.406 62.2112 95.8575 55.6631 87.78 55.6631C79.7024 55.6631 73.1543 62.2112 73.1543 70.2888C73.1543 78.3663 79.7024 84.9144 87.78 84.9144Z" fill="#001219"/>
<path d="M199.049 123.033C201.634 123.033 203.73 120.938 203.73 118.353C203.73 115.768 201.634 113.673 199.049 113.673C196.465 113.673 194.369 115.768 194.369 118.353C194.369 120.938 196.465 123.033 199.049 123.033Z" fill="#1A2A30"/>
<path d="M215.43 123.033C218.015 123.033 220.11 120.938 220.11 118.353C220.11 115.768 218.015 113.673 215.43 113.673C212.845 113.673 210.75 115.768 210.75 118.353C210.75 120.938 212.845 123.033 215.43 123.033Z" fill="#1A2A30"/>
<path d="M231.811 123.033C234.396 123.033 236.491 120.938 236.491 118.353C236.491 115.768 234.396 113.673 231.811 113.673C229.226 113.673 227.131 115.768 227.131 118.353C227.131 120.938 229.226 123.033 231.811 123.033Z" fill="#1A2A30"/>
<path d="M248.175 17.9715C246.791 18.4695 245.534 19.2646 244.492 20.301C243.449 21.3374 242.646 22.5898 242.14 23.9699C241.634 25.3501 241.436 26.8245 241.561 28.2892C241.687 29.754 242.132 31.1735 242.865 32.4477L219.444 59.4379L237.853 61.8766L257.271 35.8724C259.33 34.4989 260.814 32.4178 261.441 30.0236C262.068 27.6293 261.795 25.0881 260.674 22.8816C259.553 20.6751 257.661 18.9566 255.357 18.0516C253.054 17.1466 250.498 17.1182 248.175 17.9715Z" fill="#FFB8B8"/>
<path d="M91.7979 28.7769C92.2975 30.1595 92.4878 31.6348 92.3555 33.099C92.2232 34.5631 91.7714 35.9804 91.0321 37.251C90.2928 38.5217 89.2839 39.6148 88.0764 40.4534C86.8689 41.2919 85.4923 41.8555 84.0435 42.1045L78.2154 77.3609L64.5879 64.7464L72.2116 33.2002C71.9547 30.7385 72.6097 28.2681 74.0525 26.2571C75.4953 24.246 77.6257 22.8342 80.04 22.2889C82.4543 21.7437 84.9847 22.103 87.1517 23.2988C89.3188 24.4945 90.9719 26.4437 91.7979 28.7769Z" fill="#FFB8B8"/>
<path d="M128.399 385.364L140.659 385.363L146.491 338.075L128.397 338.076L128.399 385.364Z" fill="#FFB8B8"/>
<path d="M125.271 381.361L149.415 381.36H149.416C151.437 381.36 153.438 381.758 155.304 382.531C157.171 383.304 158.867 384.437 160.296 385.866C161.725 387.295 162.858 388.991 163.632 390.858C164.405 392.725 164.803 394.726 164.803 396.746V397.246L125.272 397.248L125.271 381.361Z" fill="#2F2E41"/>
<path d="M65.3995 385.364L77.6595 385.363L83.4915 338.075L65.3975 338.076L65.3995 385.364Z" fill="#FFB8B8"/>
<path d="M62.2715 381.361L86.4153 381.36H86.4163C88.4369 381.36 90.4377 381.758 92.3044 382.531C94.1712 383.304 95.8674 384.437 97.2962 385.866C98.725 387.295 99.8583 388.991 100.632 390.858C101.405 392.725 101.803 394.726 101.803 396.746V397.246L62.2722 397.248L62.2715 381.361Z" fill="#2F2E41"/>
<path d="M125.839 62.5083C139.404 62.5083 150.4 51.5119 150.4 37.9473C150.4 24.3826 139.404 13.3862 125.839 13.3862C112.275 13.3862 101.278 24.3826 101.278 37.9473C101.278 51.5119 112.275 62.5083 125.839 62.5083Z" fill="#FFB8B8"/>
<path d="M122.896 369.655L120.865 240.249C120.86 239.883 120.721 239.531 120.475 239.261C120.229 238.99 119.892 238.819 119.529 238.779C119.165 238.739 118.799 238.833 118.5 239.044C118.201 239.255 117.99 239.568 117.906 239.924L84.6147 366.501C84.3642 367.513 83.7736 368.41 82.9416 369.039C82.1095 369.669 81.0866 369.994 80.0437 369.96L61.7537 369.177C61.132 369.151 60.5225 368.995 59.9638 368.721C59.4051 368.447 58.9094 368.059 58.5079 367.584C58.1065 367.108 57.808 366.555 57.6314 365.958C57.4547 365.361 57.4038 364.734 57.4817 364.117L85.7305 201.458L85.7884 201L164.47 204.722L164.984 204.746L148.111 369.925C148.023 371.056 147.512 372.112 146.681 372.884C145.849 373.656 144.758 374.087 143.624 374.091H127.395C126.214 374.087 125.082 373.62 124.241 372.79C123.4 371.961 122.917 370.836 122.896 369.655Z" fill="#2F2E41"/>
<path d="M185.04 215.684L70.8623 206.314C70.1731 206.257 69.5063 206.043 68.9135 205.687C68.3207 205.331 67.8179 204.843 67.4442 204.261C67.0705 203.68 66.8359 203.02 66.7586 202.332C66.6814 201.645 66.7636 200.95 66.9988 200.299L84.9795 150.587L86.0141 91.5845C86.0517 89.4426 86.5141 87.3295 87.3747 85.3678C88.2352 83.406 89.4767 81.6346 91.0271 80.1564C92.5776 78.6782 94.4061 77.5225 96.4066 76.7565C98.4072 75.9904 100.54 75.6292 102.681 75.6938L110.274 68.811H138.094L140.516 71.9868L159.873 74.9614C163.321 75.5057 166.503 77.1442 168.948 79.6351C171.393 82.1259 172.973 85.3371 173.453 88.7944L189.868 210.599C189.953 211.235 189.902 211.881 189.717 212.495C189.533 213.109 189.219 213.676 188.797 214.159C188.376 214.642 187.856 215.03 187.272 215.295C186.689 215.561 186.055 215.699 185.414 215.7C185.29 215.7 185.165 215.695 185.04 215.684Z" fill="#001219"/>
<path d="M162.794 80.6809L211.478 66.4172L233.51 37.4093C234.117 36.6104 234.973 36.037 235.943 35.7805C236.913 35.5239 237.94 35.5989 238.863 35.9933L252.619 41.8732C253.205 42.1239 253.732 42.4964 254.163 42.966C254.595 43.4356 254.922 43.9915 255.122 44.597C255.323 45.2026 255.392 45.8438 255.326 46.4781C255.26 47.1125 255.059 47.7255 254.738 48.2765L238.272 76.5324C235.591 81.1545 231.51 84.8045 226.619 86.9553L169.357 112.268L162.794 80.6809Z" fill="#001219"/>
<path d="M69.3924 102.018C66.4831 99.9221 64.163 97.1118 62.6559 93.8582C61.1489 90.6045 60.5058 87.0174 60.7887 83.4429L62.9251 55.1353C63.0133 54.0046 63.5239 52.9486 64.3555 52.1775C65.1871 51.4064 66.2786 50.9768 67.4127 50.9741H67.4525L83.5843 51.1177C84.2452 51.1237 84.8966 51.2752 85.4923 51.5614C86.088 51.8476 86.6134 52.2615 87.0311 52.7736C87.4488 53.2857 87.7486 53.8836 87.9092 54.5247C88.0698 55.1658 88.0873 55.8343 87.9603 56.4829L84.9672 71.7544L106.327 80.7798L88.3402 115.773L69.3924 102.018Z" fill="#001219"/>
<path d="M140.128 8.49622C140.128 8.49622 114.443 -5.33399 100.443 10.9886C86.443 27.3112 105.777 52.8362 105.777 52.8362L133.325 56.3106C133.325 56.3106 134.325 37.5841 140.884 37.9477C147.443 38.3112 167.813 14.6812 140.128 8.49622Z" fill="#2F2E41"/>
<path d="M212 398.653H1C0.734784 398.653 0.480429 398.547 0.292892 398.36C0.105356 398.172 0 397.918 0 397.653C0 397.388 0.105356 397.133 0.292892 396.946C0.480429 396.758 0.734784 396.653 1 396.653H212C212.265 396.653 212.52 396.758 212.707 396.946C212.895 397.133 213 397.388 213 397.653C213 397.918 212.895 398.172 212.707 398.36C212.52 398.547 212.265 398.653 212 398.653Z" fill="#001219"/>
</g>
<defs>
<clipPath id="clip0_234_307">
<rect width="949" height="568.653" fill="white"/>
</clipPath>
</defs>
</svg>
